<svg xmlns="http://www.w3.org/2000/svg" viewBox="0 0 400 300" width="406" height="306" class="illustration styles_illustrationTablet__1DWOa"><g id="_321_travel_plans_flatline" data-name="#321_travel_plans_flatline"><path d="M352.86,246.56H47.14a.5.5,0,1,1,0-1H352.86a.5.5,0,0,1,0,1Z" fill="#d1d3d4"></path><rect x="87.42" y="46.66" width="249.16" height="163.16" fill="#fff"></rect><path d="M336.58,210.32H87.42a.5.5,0,0,1-.5-.5V46.66a.51.51,0,0,1,.5-.5H336.58a.51.51,0,0,1,.5.5V209.82A.5.5,0,0,1,336.58,210.32Zm-248.66-1H336.08V47.16H87.92Z" fill="#231f20"></path><path d="M327.84,200.77H96.16a.5.5,0,0,1-.5-.5V56.21a.51.51,0,0,1,.5-.5H327.84a.51.51,0,0,1,.5.5V200.27A.5.5,0,0,1,327.84,200.77Zm-231.18-1H327.34V56.71H96.66Z" fill="#d1d3d4"></path><path d="M214.58,100.28a1.64,1.64,0,0,1-.31,1.81c-.09.1,0,.54.16.66a1.6,1.6,0,0,0,1,.46c.54,0,1.12-.51,1.44.31,1-.08,1.82-1.13,3-.56.28.13.84-.32,1.3-.52a5.36,5.36,0,0,1,0-1c.26-1.42.51-1.51,1.63-.6.44-.39.61-.74.07-1.24s-.33-.78.26-.91a9.38,9.38,0,0,1,1.31-.15l1.66-.16V98a2.85,2.85,0,0,0-.92-.19,10.3,10.3,0,0,1-1.89.4,4.59,4.59,0,0,1-2-.65c-.34-.2.09-1.95.46-2.25l2.18-1.72c-.44-.15-.85-.43-1.15-.35a4.28,4.28,0,0,0-1.45.82c-.37.29-.59.77-.94,1.09s-.89.53-1.23.9c-.63.68-.55,1.16.19,1.7a.74.74,0,0,1-.09,1.37,1.51,1.51,0,0,0-.85,1.29c-.06.54-.06,1.32-1,1.12-1.19,1.54-1.15,0-1.46-.59a3.84,3.84,0,0,0-.18-.35c-.33-.54-.56-1.31-1.05-1.53-.32-.15-1,.49-1.53.76a1.24,1.24,0,0,1-1.55-.69,7.24,7.24,0,0,1-.47-1.66,1.46,1.46,0,0,1,.37-1.08,6.26,6.26,0,0,1,2.45-1.4c.66-.18,1.21-.91,1.73-1.48.74-.82,1.4-1.72,2-2.48l-1.37.33a6.78,6.78,0,0,1,1-.79,5.52,5.52,0,0,1,1.21-.27c.38-.24,1.06-1,1.56-.9.89.18,1.55-.49,2.42-.3.39.09.91-.38,1.56-.69l-.34.74a3.21,3.21,0,0,1,1.14-.37,13.26,13.26,0,0,1,1.95.41l-.23.35c1.41.33,2.8.59,4.16,1a13.68,13.68,0,0,1,2.24,1c.6.3.63.74,0,1a5.21,5.21,0,0,1-3.61,0,2.68,2.68,0,0,0-1.15-.14l1.09.58c0,1.3.8,2,2.08,1.59L230.6,94l.08-.2,2.23.36-.41-.83a13.55,13.55,0,0,1,1.35-.57,12.91,12.91,0,0,1,1.46-.22,2.47,2.47,0,0,1-.34-.71,5.9,5.9,0,0,1,.08-1.19l1.67.36,0,.33-.83.28c.63,1,.88.89,1.69.24a9.87,9.87,0,0,1,2.34-1.1,6.52,6.52,0,0,1,.92-.2c.67,1.07,1.63,0,2.51.09.39,0,.82-.56,1.15.15a7,7,0,0,0,1-.32l-1.78-1.28a34,34,0,0,1,3.59.67c1,.3,1.87,1,3,.92a2.34,2.34,0,0,1-1.21-2.08,7.15,7.15,0,0,1,1.23-1.39A3,3,0,0,1,251.8,87a4.47,4.47,0,0,1,1.13.26l-.56.81.43,2.8.4.13-1.77,1.61a2,2,0,0,0,2.48-2c.57,0,1.3-.29,1.35.73.66-.57.52-1.08-.3-1.12-.52,0-1,0-1.61,0l-.2-2.16,1.14-.75v1l1,.14-.76-.65,1.19.17.1-.2-.59-.41.07-.21c.76.23,1.52.47,2.28.69a6.63,6.63,0,0,0,.89.16.71.71,0,0,0,.06-.25c-.26-.13-.53-.23-.94-.4l-.28-.87,3.9-.33-.58-.62a11.07,11.07,0,0,1,5.76-1.06,8.64,8.64,0,0,0,2.06-.31c.07,0,.12-.09.18-.09a3.26,3.26,0,0,0,1.7-.7c.72-.52,1.61-1.14,2.41.06.15.22.64.21.94.3a20.69,20.69,0,0,1,3.15,0c.38.06.67.73,1,1.15l-4.38,1.56,0,.18c.29,0,.59,0,.88,0s.73.09.94-.07c1-.72,2-.29,3-.18.4,0,.85-.23,1.23-.16a3.67,3.67,0,0,1,1.31.62,2,2,0,0,0,2.6-.5,1,1,0,0,1,.72-.17c1,.12,1.93.3,2.95.46-.12,1.13-.07,2.09,1.41,2.11l.39-.65h4.68l-.48-.8a10.71,10.71,0,0,1,3.4-.18c1.12.31,2.35.06,3.45.9.73.56,2,.48,3.07.51s2.13-.18,2.88.94c.17.24.81.21,1.24.24a18.49,18.49,0,0,0,2,0c.48,0,1-.19,1.44-.25a6.61,6.61,0,0,1,.89,0l.19.31-.59.17.06.2,1.6.48-.31-1.24a23.57,23.57,0,0,1,5,.7c1.47.54,3.28.76,4.21,2.36.5-.7,1-.63,2.78.5-.59.5-1.56.53-1.75,1.44-.64-.19-1.28-.37-1.91-.58-.33-.1-.64-.24-1-.36a4.62,4.62,0,0,1-.73-.29,1.63,1.63,0,0,1-.38-.44c-.06.19-.11.38-.16.58s0,.18-.07.31l-1.74.6a2,2,0,0,1,.9,1.87c-2.37-.43-3.94.9-5.67,2a1.41,1.41,0,0,0-2-.19,1.37,1.37,0,0,1-.81.11c-1.27-.1-1.46,1.1-2.29,1.77l.78.16.18,1.46c-.87.07-1.15.47-.63,1.24-.45.47-1.69.11-1.25,1.37-1.45-.21-1,1.6-2.11,1.9-.35-2-1.48-4,.06-5.73,1.84-1.26,3.62-2.32,4.73-4.15l-.16-.23c-.2.06-.57.14-.57.19.05.67-.48.77-.91.93s-1.06,1.2-1.32-.22a4.94,4.94,0,0,0-1.77.15,3.06,3.06,0,0,0-1.12,1c-.15.19-.11.53-.18.94l-2.23.31.44-.68a12.74,12.74,0,0,1-3.13.18c-2.19-.46-3.43,1-4.83,2.12-.68.57-1.36,1.16-1.94,1.66a6.32,6.32,0,0,0,.92.94,1.11,1.11,0,0,0,.79,0c.32-.08.73-.46.9-.36.36.2.89.7.83,1-.35,1.53-.1,3.2-1.06,4.59s-1.72,2.51-2.58,3.75a1.51,1.51,0,0,1-2.05.36c-.42.64-1.29.87-1.36,1.92,0,.44-.88.82-1,1.24a24.51,24.51,0,0,1,.95,2.73c.32,1.46-1.08,1.38-2,1.95.07-.94.16-1.78.18-2.63,0-.22-.25-.64-.34-.63-1.16.13-.59-.55-.49-1a1.72,1.72,0,0,1,.17-.38,1.43,1.43,0,0,0-2.16.45l-.29-.2.42-1.45c-.89-.19-1.15.7-1.7,1.07-.15.1-.23.29-.38.38a3.45,3.45,0,0,1-.57.18c.13.22.27.44.41.65s.35.49.4.56h2.41l-2.18,1.88,1.51,3.7-.71.66L283,124c-.47.93-.94,1.86-1.42,2.78a9.87,9.87,0,0,1-1.14,2.07c-.58.68-1,1.57-2.15,1.68a6,6,0,0,0-2.11.87,4.58,4.58,0,0,0-.87.92l-.13-.88a2.16,2.16,0,0,0-2.35,1.61c-.3,1.48.86,2.35,1.67,3.24l1.33-.33.16.22c-.26.33-.54.65-.78,1a1.13,1.13,0,0,0-.28.61c.09,1.34.18,2.61-1.44,3.28-.45.18-.66,1-1.19,1.42v-1l-2.72-3.2a1.92,1.92,0,0,0-.31.47,5.8,5.8,0,0,1-.18,1.13c-.65,1.35.24,2.49.49,3.7.1.5.89.82,1.19,1.32a6.36,6.36,0,0,1,.58,1.74,7.88,7.88,0,0,1,.29,2.25,7.26,7.26,0,0,1-1.55-1.47,8.72,8.72,0,0,1-.57-2.11,3,3,0,0,0-.47-1.24,3.69,3.69,0,0,1-.66-3.38c.32-1.91-.57-3.6-.83-5.51-.64.54-.82,1.5-1.88.93.67-1.51-.19-2.65-1-3.84a5.38,5.38,0,0,1-.52-1.54c-.73.16-1.45.28-2.15.46-.25.07-.64.24-.67.42-.26,1.4-1.62,2-2.3,3-.45.69-1.2,1.18-1.67,1.86a2.46,2.46,0,0,0-.17,1.39,7.4,7.4,0,0,1-1.74,5.29,31.47,31.47,0,0,1-2-6.06c-.52-2-.81-4.15-1.14-6l-.74.91-1.45-1.25.63-.26-2.19-2.5c-1.2,0-2.54.07-3.87,0s-1.4-.23-1.86-1.37a2.44,2.44,0,0,1-3.44-1.39,5,5,0,0,0-.23-.53c-.62-1.2-.81-1.22-1.69-.23l1.66,3.53.37-.89c.11.49.17.71.21.93s.12.68.17,1c.55-.1,1.22.4,1.63-.42a8.93,8.93,0,0,1,1.09-1.41,5.42,5.42,0,0,0,.14,1.27,1.41,1.41,0,0,0,.61.78c1.44.71,1.66,1.76.58,2.95a4.83,4.83,0,0,0-.45.72c-.15.24-.27.5-.43.72a6.94,6.94,0,0,1-2.26,1.83c-.93.55-1.71,1.37-2.62,2a26.59,26.59,0,0,1-2.69,1.43c-.51.26-.75.05-.85-.5-.27-1.57-.25-3.22-1.21-4.61a14.84,14.84,0,0,1-.93-1.45,14.55,14.55,0,0,1-.46-1.41c-.24-.64-.5-1.27-.77-1.9s-.7-1.54-1.08-2.31c-.22-.44-.49-.87-.68-1.21l-1.4.42-.1-.28.72-.55-1.46-1.54c.18-.1.53-.5.89-.5.94,0,1.22-.59,1.39-1.33.27-1.16.53-2.31.85-3.77l-1.59.73s-.06,0-.09,0c-.63-.15-1.55-.64-1.82-.4-.88.78-1.31-.11-1.81-.34s-.63-.84-.92-1.26l.14-1.79c-.64-.37-.61-.35-1.35.31-.15.13-.54,0-1,0a11.19,11.19,0,0,1,.76,1.23,1.32,1.32,0,0,1,.09.89,9.27,9.27,0,0,1-.76,1.34c-.66-1.5-2-2.65-2-4.55,0-.41-.59-.94-1-1.21-.72-.43-1.52-.71-1.76-1.65,0-.1-.35-.09-.46-.2a3,3,0,0,1-.32-.6c-.93.25-1.06.69-.38,1.52.28.34.45.76.72,1.11s.39.5.63.56c.9.2,1.31,1,2,1.46.05,0,0,.17.07.36l-1.16-.5.33,1.18-.71,1c.44-1.65-.77-2.19-1.79-2.93a10.73,10.73,0,0,1-1.55-1.67c-.29-.34-.55-.7-.82-1a8.49,8.49,0,0,0-1.1.75,1.19,1.19,0,0,1-1.45.26c-.55-.23-1.16-.28-1.1.73,0,.32-.44.68-.71,1-.41.47-.89.87-1.25,1.37-.14.2,0,.58,0,1.11-.47,1.35-2,1.57-3.55,1.94l-.61-.81-1,.12c-1-1.71.41-3.52-.45-5.27,1.51-.91,3.07-.19,4.64-.31.11-.87.72-1.78,0-2.63a18.26,18.26,0,0,1-1.74-1.91l1.86.08-.11-.88a1.53,1.53,0,0,0,2.09-.81c.11-.2.36-.3.54-.47l1.63-1.62,2.1-.84a4.67,4.67,0,0,0-.06-.9C213.17,101.06,213.16,101.06,214.58,100.28Z" fill="#d1d3d4"></path><path d="M132.81,112.18h1.09a3.31,3.31,0,0,0-1.92-1.75,5.45,5.45,0,0,1-2.68-3.11c-.14-.33-.66-.51-1-.73l-.24.68c-.38-.86-1.47-1.22-.64-2.27,0-.06-.54-.87-.74-.83a3.28,3.28,0,0,1-2.29-.72A5.57,5.57,0,0,0,123,103c-1.16-.24-2.33-.43-3.56-.65l.11.54-2.48.64.18-1.31-1.45,1.23c.29.56-2.07,2.56-3.56,3l.51.47,0,.3c-1.14-1-2.08,0-3.19,0l1.57-.85a10.85,10.85,0,0,0,1.69-.89,11.2,11.2,0,0,0,1.3-1.48h-2.86l-.21-1.16c-1.55,1.11-1.45-.74-2.24-1,.41-1.57,1.85-1.34,3-1.72l-.18-.85c-1.67.15-2.06.67-3.87-.73.39-.13.75-.22,1.09-.37a10.36,10.36,0,0,0,1-.5c.61.76,1.1.78,2,.18l-3.62-1.44c.54-.21.87-.32,1.19-.47s.8-.45,1.23-.62c.81-.33,1.64-.65,2.47-.92a7.78,7.78,0,0,1,4.09.16,27.86,27.86,0,0,0,3.29.39,19.16,19.16,0,0,1,5,.95,5.31,5.31,0,0,0,1.13.16c0-1.3,1-.26,1.44-.62a3.25,3.25,0,0,1,1.88-.4l-2,.82.13.28L131,94.62l1,.93.73-.59.39.65c.47-.8,1.13-.53,1.82-.36.94.23,1.91.35,2.86.53.3.06.59.16,1,.28l-.61.47.05.24a14.29,14.29,0,0,1,2.26-.14,11.38,11.38,0,0,1,2,.51l-.11-.73c.73,0,1.39,0,2,0,1.22.08,2.43.61,3.66-.16.24-.15.89.34,1.45.58l1.11-.88L149,94.71c-.14-.65.18-1.18,1-1.26.69-.06,1.56,1,1.47,1.7l1.05.19-.12,1.07.91-1.07,1,2.07,1.59-2.26,1.68.31v1.63l.22.25-1.6.35.53.83-1.83-1c.2.88-.23,1.07-.79,1a7.1,7.1,0,0,0-1.61-.22l2.16.64c-.66.31-1.13.52-1.6.76a1.94,1.94,0,0,0-.63.4c-.81,1-2.48,1.41-2.39,3.11,0,.25.22.65.41.7.8.18.87.73.82,1.45,1.05-.58,1.82,0,2.7.49a26.44,26.44,0,0,0,3.21,1.22c.08.67-.05,1.73.94,2.35.2.12.54.36.59.31.25-.24.62-.57.61-.86a7.7,7.7,0,0,0-.42-1.67c.56-.49,1.46-.89,1.59-1.48s-.53-1.3-.89-2.06c.91-.65,0-1.64.11-2.64,1.78-.49,3.31.41,4.88,1.23a1.28,1.28,0,0,0,1,1.81c1.18.3,1.31-.92,1.8-1.61.5.71,1,1.34,1.44,2,.24.42.14,1.11.45,1.4a12.11,12.11,0,0,0,2.08,1.29l-.56.36a4.56,4.56,0,0,1,1.26.31,1.29,1.29,0,0,1,.51.88.89.89,0,0,1-.49.69c-1.44.7-2.78,1.61-4.58,1.2-1.16-.27-1.93.78-2.73,1.54a15.08,15.08,0,0,1,1.44-.6,3.07,3.07,0,0,1,1.13-.08c.09,0,.26.5.2.56-.72.69-.48,1.24.2,1.73.91.65,1.23.58,1.84-.33a.47.47,0,0,1,.36-.21l-.23.79.42-.24.15.26-3.37,1.8-.24-.06.69-1.49a28.45,28.45,0,0,0-3.18,1.65c-.25.17-.13.91-.18,1.38l.27.13a5.21,5.21,0,0,1-1,.21c-.81,0-1.29.23-1.38,1.19,0,.55-.55,1.05-.9,1.66l-.37-1.41a8.17,8.17,0,0,0,0,1.66c.37,1.7.29,1.95-1.18,2.8-.88.5-1.89,2-1.74,2.68.23.91.54,1.8.71,2.72a5.64,5.64,0,0,1-.08,1.47l-.48.06-1.51-3.88-.82.36c-.71-1.24-1.78-.46-2.72-.5l.41.9c-.86-.17-1.53-.28-2.19-.46-.51-.13-.9-.14-1.21.39-.15.26-.5.4-.74.62s-.56.42-.56.64c-.05,1.63-.08,3.26,0,4.89a2.73,2.73,0,0,0,.59,1.51c.32.4.92.92,1.31.86.73-.13,1.76.07,2-1.16s.66-1.46,2.12-1.26l-1,4.42c.48,0,1,0,1.43-.07,1.23-.16,1.74.41,1.57,1.62-.22,1.51-.46,3.07,1.27,4,1.41-.69,1.4-.68,2.54.5a5.23,5.23,0,0,0,1,.64c.34-1.95,2-2.45,3.41-3.33-.12.8-.61,1.55-.12,2.32l.72-2c.77.36,1.41.68,2.07,1a3.3,3.3,0,0,0,2.15,0c.68-.14,1.05.61,1.56,1a3.27,3.27,0,0,1,.47.51,7.26,7.26,0,0,0,1,1,3.41,3.41,0,0,0,1.5.72c1.84.1,2.71.6,3.16,2.36a3.62,3.62,0,0,0,3.08,2.7c.64.14.95.34.82.95,1.47,0,3-.29,4,1.12a.66.66,0,0,0,.38.29,1.65,1.65,0,0,1,1.56,1.85,5.26,5.26,0,0,1-1.15,2.25c-.41.64-.95,1.19-1.41,1.8a.87.87,0,0,0-.08.37,29.15,29.15,0,0,1-.4,3.52,10.59,10.59,0,0,1-1.1,2.37,1,1,0,0,1-.55.34c-.91.35-1.85.62-2.73,1a2,2,0,0,0-1.12,1.87,8.15,8.15,0,0,1-1,2.41c-.13.29-.29.57-.49,1l-.17-.93c-1,1.89-1.72,4-4.39,2.19.34.61.6,1,.8,1.42a1.16,1.16,0,0,1-.81,1.74c-.71.19-1.45.28-2.19.42.09,1.35-.22,1.6-1.8,1.13.72,1.75-.21,2.79-1.63,3.59a4.78,4.78,0,0,0,.64.56c.78.41.77.53.08,1.13-.49.42-1.17.87-1.28,1.4a3.07,3.07,0,0,0,.5,2c.29.46,1,.66,1.62,1a9.42,9.42,0,0,1-3,.23,5.69,5.69,0,0,1-2.64-1.57,4.38,4.38,0,0,1-.65-2.18c-.12-.73-.24-1.53.72-2l-.71-.09.84-2.11.19,0,.16.87h.12l.38-2.2c-.91-.1-.91-.63-.59-1.29.06-.11.23-.25.2-.32-.64-1.39.61-2.34.8-3.53s.24-2.31.39-3.47c.2-1.49.47-3,.65-4.48a7.3,7.3,0,0,0,.06-2.59,2.48,2.48,0,0,0-1.34-1.51c-1.93-.67-2.44-2.4-3.19-3.93-.59-1.2-.88-2.53-2-3.51a1.07,1.07,0,0,1,.07-1.58,3.68,3.68,0,0,0,.54-.71c-.69-.23-.88-.71-.55-1.29a16.59,16.59,0,0,1,1.48-2.29c.87-1.05.82-1.89-.16-2.72a4.89,4.89,0,0,1-.82-1.37c-.13-.23-.24-.46-.36-.7h-.29l-.56,1.36c-.08-.06-.3-.23-.53-.38a2,2,0,0,0-.58-.36c-.42-.09-.85-.1-.82-.69a.1.1,0,0,0-.06-.08c-1-.26-1.06-1.13-1.38-1.88a2.67,2.67,0,0,0-2-1.6,3.5,3.5,0,0,1-2-1.46c-.41-.49-.81-.81-1.49-.34a1.09,1.09,0,0,1-1-.05c-1.43-.81-2.83-1.66-4.2-2.57a1.2,1.2,0,0,1-.49-1,3.14,3.14,0,0,0-.77-2.59c-.7-1-1.44-2-2.09-3s-1-1.86-1.5-2.75c-.19-.31-.62-.47-.94-.7l-.29.2c.31.63.61,1.27.93,1.89l1.68,3.28c.12.23.28.45.39.69s.23.61.34.92l-.4.17a21,21,0,0,0-1.31-2.54,5.61,5.61,0,0,0-1.27-1.08c0-.58.19-1,.05-1.16-1-.9-1.16-2.21-1.71-3.32-.14-.27-.36-.64-.61-.7-1.48-.37-1.69-1.75-2.32-2.8a6.58,6.58,0,0,1-.73-1.42,9.37,9.37,0,0,1-.29-3.91A20.17,20.17,0,0,0,132.81,112.18Z" fill="#d1d3d4"></path><path d="M220.27,173.71a1.62,1.62,0,0,1-.91-1.76,3.22,3.22,0,0,0-1-2.16,5,5,0,0,1-1.23-3.4,6.83,6.83,0,0,0-1.26-3.27c-1-1.68-.32-3.14.38-4.56.31-.65.6-1.11.13-1.75a.88.88,0,0,1-.15-.55,5.16,5.16,0,0,0-1.37-3.93,3.42,3.42,0,0,1-.73-3.82,2,2,0,0,0-.26-1.39,1.25,1.25,0,0,0-1-.36c-.7.06-1.2.1-1.47-.78s-1.19-.57-1.83-.43a19.61,19.61,0,0,0-1.9.68,4.18,4.18,0,0,1-.93.14,13,13,0,0,0-2.44.24,1.38,1.38,0,0,1-1.5-.22,23.85,23.85,0,0,1-2.24-1.87,24.5,24.5,0,0,1-1.68-2.44c-.12-.18-.34-.28-.48-.45s-.36-.4-.38-.61a7.53,7.53,0,0,1,.25-3,3,3,0,0,0-.07-2.25c-.61-1,0-1.54.33-2.2.47-.94,1-1.85,1.58-2.75a1.1,1.1,0,0,1,.59-.41c.94-.29,1.58-.7,1.57-1.89a2,2,0,0,1,1.1-1.79,7.44,7.44,0,0,0,1.51-1.55c1.06.84,2.19.41,3.36-.07a10.14,10.14,0,0,1,2.3-.61c1.1-.14,2.22-.18,3.33-.22a6.34,6.34,0,0,1,1.28.18l-.68,2c.51,1,1.76.47,2.68.87.1,0,.33,0,.34,0,.21,1.14,1.37.86,2,1.35s.88.1.93-.53a1.1,1.1,0,0,1,1.65-.93,25.86,25.86,0,0,0,3,1,3.09,3.09,0,0,0,1.53-.11c.67-.18,1.15-.26,1.43.59a31.64,31.64,0,0,0,1.36,3.37c.4.89,1.23,1.69,1.32,2.58.15,1.45,1.11,2.47,1.52,3.75a2.94,2.94,0,0,0,.68,1c.52.53,1.13,1,1.59,1.53.25.31.22.83.43,1.18a.86.86,0,0,0,.71.34c1.26-.28,2.51-.62,3.92-1a6.61,6.61,0,0,1-.37,1.86c-1,2-1.93,3.94-3.78,5.44-1.4,1.13-2.28,2.9-3.37,4.41-.1.13-.14.48,0,.55.67.55.24,1.28.36,1.91s.49,1.1.58,1.68a7.18,7.18,0,0,1,.13,2.56c-.12.56-.73,1.05-1.2,1.49-.72.68-1.51,1.27-2.24,1.94-.11.1-.08.41,0,.6.08.34.24.67.34,1a1.44,1.44,0,0,1-.88,1.94c-.32.15-.61.34-.74.41,0,.62.09,1.16-.11,1.49-1.11,1.76-2.19,3.64-4.37,4.27a17.62,17.62,0,0,1-2.64.28A4.62,4.62,0,0,0,220.27,173.71Z" fill="#d1d3d4"></path><path d="M174,95.87,172.94,95l2.31-1.17v-1l-1.93-.72.05-.3,2,.29-1.57-1.1c-.94.55-1.23.34-1.26-1.07l.65,0c-.42-.61-.78-1.19-1.2-1.72a4.34,4.34,0,0,0-4.79-1.73,2.77,2.77,0,0,1-1.12.16c-.4-.07-1.12.37-1.16-.59,0-.11-.78-.2-1.19-.3v-.33l2-.11-3.3-.93a3.31,3.31,0,0,1,.73-.4c1-.16,1.93-.25,2.88-.44.57-.11,1.3-.12,1.29-1.06h-1.39l-.06-.34,3.2-.82.05-.59c.08,0,.15-.07.2-.06.92.34,1.68-.37,2.55-.38a1.81,1.81,0,0,1,1.37.56c.25.22.77-.79,1.4-.22.12.11.44,0,.74,0l-.38-.63,3.35.84.08-.29a3.63,3.63,0,0,1-.82-.19.72.72,0,0,1-.38-.46c0-.12.25-.36.41-.38.84-.08,1.69-.1,2.53-.17.6,0,1.19-.22,1.79-.22,2.34,0,4.69,0,7,.19a18.06,18.06,0,0,1,3.13.81l-2.53.43,0,.4c.23,0,.46,0,.69,0,.41,0,.83-.08,1.24-.13l-.49.79A22.54,22.54,0,0,0,194.2,81a4.27,4.27,0,0,1,3.56.22c-2,1-4.22,1.59-5.52,3.53a4.13,4.13,0,0,1,1.39.1c.29.13.43.59.69,1l-1.4.09c-.09.58,1.39,1,.26,1.72l.64.67-1.44.2.65.73h-2.25c-.43.59-.35,1,.49,1.36a1.41,1.41,0,0,1,1,1.78l-1.94-.82-.66.8,2.45.26a13,13,0,0,1-5.6,2.09c-.34,0-.73.42-1,.74a3.57,3.57,0,0,1-3.39,1.82c-.22,0-.68.5-.68.77a1.84,1.84,0,0,1-.94,1.91c-.09.05-.14.23-.17.36-.17.71-.37,1.41-.49,2.13s-.54.54-1,.35a15.94,15.94,0,0,1-1.68-.76,2.56,2.56,0,0,1-.92-.9c-.79-1.46-1.54-3-2.26-4.45C173.91,96.5,174,96.2,174,95.87Z" fill="#d1d3d4"></path><path d="M296,159.36c.38.37.71.56.87.85a2.76,2.76,0,0,1,.48,1.33c-.06,1.08.76,1.47,1.38,2a1.31,1.31,0,0,1,.32.3,3.55,3.55,0,0,0,1.08,1.37,5.69,5.69,0,0,1,1.61,2.52,4.64,4.64,0,0,1-.43,4.08,11.67,11.67,0,0,0-1.54,3.55,5.09,5.09,0,0,1-2.71.85c-.17-.08-.33-.18-.5-.28a2.08,2.08,0,0,1-3.07-1.11,7.94,7.94,0,0,0-1-1.36l-.36.25.27-1.43-1.3,1.46c-.41-.67-.65-1.49-1.19-1.83a3.79,3.79,0,0,0-2.27-.48,9.29,9.29,0,0,0-3.11.86,3.86,3.86,0,0,1-2.3.75,3.1,3.1,0,0,0-1.68.58,1.31,1.31,0,0,1-1.75-.2,1,1,0,0,1-.15-.71c0-.44.25-.89.16-1.28-.21-.84-.56-1.63-.85-2.44-.16-.43-.46-.83,0-1.29.07-.07-.14-.38-.16-.59-.07-.67-.4-1.55-.09-2s1.3-.79,2-1.18c1-.57,2.52-.14,3-1.63.07-.2.05-.44.14-.64a3.22,3.22,0,0,1,.38-.53l.35.28a16.26,16.26,0,0,1,1.58-1.81c.67-.59,1.08-.22,1.32.81a12.26,12.26,0,0,1,1.11-1.46,11.47,11.47,0,0,1,1.25-.86,2.87,2.87,0,0,0,.42-.44l2.53.62c0-.09,0,0,0,0-1,1.47-1,1.47.5,2.57.27.21.55.39.84.58l1.06.67c.17-1,.32-1.76.45-2.55s.25-1.61.38-2.42l.33,0Z" fill="#d1d3d4"></path><path d="M160.84,94c.1-1.11-1-1.07-1.46-1.61-.25.59-.41,1.21-1.13.55-.15-.13-.49,0-.74-.06-1.19-.14-2.38-.26-3.56-.43-.23,0-.43-.26-.71-.43l1.07-.35c-1-.18-1.87-.25-1.43-1.37a2,2,0,0,1,2.5-1.31c-.2.45-.6.93-.57,1.36s.5.87.83,1.27c-.33-2-.15-2.4,1.31-2.6.77-.11,1.09.33,1.17,1.6a3.51,3.51,0,0,1,3.92.25,2.61,2.61,0,0,0,1,.26c.09,0,.21,0,.29,0a13.77,13.77,0,0,1,1.93,1,8.56,8.56,0,0,1,1.21,1.38l-.86.17-.11.23,3.9,2.1-1.5,1.86-1.94-1.69-.35.94c.73.68,2.1,1.17,1.8,2.89l-1.11-.11.48,1.14c-1.37-.57-2.73-.61-3.6-1.83a2,2,0,0,0-2.26-.77,3.06,3.06,0,0,1-1.08-.18c.06-.3.11-.6.18-.9a1.47,1.47,0,0,1,.21-.53,2,2,0,0,1,.64-.58c.1,0,.34.21.52.33l-.65.83,1.4-.15V97l-.47-.17c.23-.72,1.62-.79,1.14-1.88A1.76,1.76,0,0,0,160.84,94Z" fill="#d1d3d4"></path><path d="M154.58,81.84c-.89.53-1.72-.37-2.71-1.09a27.19,27.19,0,0,1,4.16-.43,12.47,12.47,0,0,0,3.71-.66,10.46,10.46,0,0,1,2.8-.11c1.71,0,3.43.12,5.13.24a8.15,8.15,0,0,1,1.58.51,11,11,0,0,1-1,.53q-2.25,1-4.52,1.9a5,5,0,0,1-1,.29,1.78,1.78,0,0,0-1.6,1.55l-2.15.88.93.55c-.81.1-1.44.84-2.18.06-.08-.08-.36,0-.55.08a9.54,9.54,0,0,1-4.41-.19l1.5-.44-.18-.48,1.34.11.09-.23-1.16-.56c.68-1.06,1.66-.16,2.53-.37l-2.09-1.25.25-.22c1.26.49,2.4-.26,3.74-.27C157.5,81.35,156.08,82.44,154.58,81.84Z" fill="#d1d3d4"></path><path d="M137,92.57l2.69-.17,0-.18c-.56,0-1.11-.11-1.66-.14s-1.1,0-1.65,0v-.32l1.12-.41L136,91c.53-1.23,1.63-1.4,2.85-1.57l-.07.66c.15,0,.27,0,.32,0,.51-.49.93-.31,1.4.09s.66-.74,1.13-.15a4,4,0,0,0,1,1l-.36-1.55h1.43a8.49,8.49,0,0,0,1,2.24c.46.55,1.28.79,1.86,1.36l-.9.08.4.74a5,5,0,0,1-1.57,0c-1.21-.45-2.24,0-3.36.35-.6.17-1.5.5-1.95-.49-.06-.13-.39-.14-.59-.2L136.94,93Z" fill="#d1d3d4"></path><path d="M298.49,154.19l-.73.53L300,157a3.07,3.07,0,0,1-2.49-1.36,1,1,0,0,0-1.81.07.81.81,0,0,1-1.33.31c-.59-.69-1.23-.66-2.26-.36l.8-1.11a1.85,1.85,0,0,0-1.41-1.49,14.47,14.47,0,0,1-2.06-.64c-.23-.09-.35-.42-.54-.67l.75-.33-1.86-.89a7.47,7.47,0,0,1,1.19-.46.86.86,0,0,1,1.12.69,12.91,12.91,0,0,0,.46,1.32l.31,0a3.48,3.48,0,0,1,.46-.61c.59-.49,1.07-1,2-.26.7.53,1.8.5,2.6.94A24.51,24.51,0,0,1,298.49,154.19Z" fill="#d1d3d4"></path><path d="M274.91,148.39l.91.31,3.93-3.7,1.17,1.17c-1.15,1.08-1.2,1.83-.14,2.93-.84.34-1.52,1.83-1.49,3.42l-3.72-.72C275.43,150.75,274.42,149.8,274.91,148.39Z" fill="#d1d3d4"></path><path d="M235.26,160.87c1.94.08,2.05-1.69,3.14-2.5a1.67,1.67,0,0,1,.29,2.19c-.07.11-.05.29-.09.44-.52,1.85-1,3.72-1.57,5.57a1.1,1.1,0,0,1-1.76.45,2.68,2.68,0,0,1-.34-2.65,5.09,5.09,0,0,0,.32-1.71C235.3,162.08,235.26,161.5,235.26,160.87Z" fill="#d1d3d4"></path><path d="M206.26,105.59l-.8-.24c0-.44,0-.8,0-1.15,0-.14.21-.38.24-.36.5.2.78-.14.69-.46s-.54-.5-.84-.72c-.07,0-.18,0-.35,0l.12-.61c-.84-.79-1.16-1.39-.94-1.71.48-.68,1.55-1.11,2-.81.76.5.78.87.21,1.88l2.11,2.9s.37,0,.51.24-.14.44-.23.68-.15.41-.32.89l-3.85.61Z" fill="#d1d3d4"></path><path d="M272.8,153.83l-1.09-.09c-.84-1.2-1.78-2.56-2.73-3.9s-1.82-2.54-2.82-3.94c2,.23,2.76,1.82,4,2.72a7.7,7.7,0,0,1,2,2.49c.15.25.6.32.87.46l-.29,2.29Z" fill="#d1d3d4"></path><path d="M243.45,89.08c-1.6.06-2.92-.08-3.94-1.07a22.25,22.25,0,0,0,2.32-2.2,5.26,5.26,0,0,1,3.06-1.48c1.15-.3,2.37-.32,3.55-.51a15.24,15.24,0,0,0,1.6-.45l.17.37a3.1,3.1,0,0,1-.85.47,22.68,22.68,0,0,0-3.32.66,8.6,8.6,0,0,0-3.72,2.52c-.14.18,0,.7.16,1S243,88.77,243.45,89.08Z" fill="#d1d3d4"></path><path d="M192.32,99l-1.38-.4,1.24-.65H190.8l-.13-.17L192,97l-.11-.32.72,1,2.93-.7.08-.32A6.57,6.57,0,0,1,197,98c.41.7-.44,1-.81,1.26a4.86,4.86,0,0,1-1.67.79,2.36,2.36,0,0,1-1.15,0c-.58-.12-1.13-.34-1.71-.52Z" fill="#d1d3d4"></path><path d="M290.6,120l-2.35.59c.69-1.16,1.07-1.34,2.85-1.34.14-.25.31-.52.44-.8a5.13,5.13,0,0,0,.21-.52c.39,0,.83,0,.89-.08.35-.72.62-1.48.9-2.23.18-.47,0-1.2.91-1.17a2.23,2.23,0,0,1,0,2.5,3.13,3.13,0,0,0-.3,1.85c.11,1-.81,1-1.24,1.14-.79.21-1.45.43-1.71,1.35l-.29,0Z" fill="#d1d3d4"></path><path d="M132.68,88.16a14.72,14.72,0,0,1,5.26.8c-.94.59-1.68,1-2.39,1.5s-1.24.87-1.74,1.23l-1.66-1.09C132.31,90,133.29,89.35,132.68,88.16Z" fill="#d1d3d4"></path><path d="M150.59,83.86l.52-.44L149,83c.39-1.06.88-1.66,1.89-1.51a4.77,4.77,0,0,1,.77.28,2.84,2.84,0,0,0,.88.21c.41.41.75,1,1.41.46l.9.78C153.83,84.66,152.54,84.87,150.59,83.86Z" fill="#d1d3d4"></path><path d="M215,81.14l3.15.27-.33-.72,5.28,2.11,0,.35h-1.88c-.11-.27-.15-.56-.31-.67a.73.73,0,0,0-.66,0c-.56.38-1.07.82-1.7,1.33L217,83.42l.64-.33-1-.08,0-.17,1.2-.43,0-.24a4.41,4.41,0,0,1-1.53.21,5.06,5.06,0,0,1-1.36-.91Z" fill="#d1d3d4"></path><path d="M151.29,86.22,152,86v.53c2.16,1.48,4.53,0,6.78.71a1.44,1.44,0,0,1-2,.84,4.15,4.15,0,0,0-.92,0c-1.31,0-2.63,0-4-.12-.21,0-.46-.45-.56-.73A4.18,4.18,0,0,1,151.29,86.22Z" fill="#d1d3d4"></path><path d="M137.77,87.06l-.29.07a2.25,2.25,0,0,1-.26,0c0-.08,0-.16,0-.19.94-1.22,2-.49,3-.13.44.15.86.32,1.52.57l-.57-1.18.62-.41c.08.07.18.11.21.18.21.53.36,1.11,1.16.67.11-.06.53.17.58.33s-.16.58-.31.6c-1.46.28-2.94.51-4.42.73-.06,0-.14-.11-.34-.28l1.49-.38,0-.22-3.29.27,0-.15,1-.36Z" fill="#d1d3d4"></path><path d="M309.68,181.32l4.07-3.53a2.66,2.66,0,0,1,.5.3c.13.12.29.46.24.51-.44.47-.47,1.29-1.27,1.45a.8.8,0,0,0-.45.32C311.62,182,311.63,182,309.68,181.32Z" fill="#d1d3d4"></path><path d="M282.48,151.13l.73,1.57-.62.46-.73-1.5c0,1.62,0,1.72-.55,2.08l-.4-1.8-.19.05.92-3.09c1-.15,2.08.92,3-.46-.31,1-.43,1.1-1.24,1a3.94,3.94,0,0,0-1.33,0c-.88.28-.31.75-.13,1.12l1.56-.52.09.21Z" fill="#d1d3d4"></path><path d="M202.17,105v-1.52c.38-.36.71-.62,1-.94.51-.58,1-.18,1.47,0s.37.6-.07.88c-.08,0-.1.2-.11.31,0,.36.1,1-.07,1a9.28,9.28,0,0,1-2,.74c-.12,0-.32-.25-.49-.39Z" fill="#d1d3d4"></path><path d="M148.72,89.07l-.64.53L149,90c.28,1-.71,1-1.14,1.37-.07.06-.53-.3-.81-.46L145.43,90l.09-.29,1.41.24-.75-.79A1.89,1.89,0,0,1,148.72,89.07Z" fill="#d1d3d4"></path><path d="M296.18,107.49l-.8,0,.26,2.41h-.8c.52-2.21-.7-4.6.56-7.06C295.68,104.5,295.93,106,296.18,107.49Z" fill="#d1d3d4"></path><path d="M272.77,153.86a12.73,12.73,0,0,0,1.69.44c.92.1,1.85.1,2.78.15a.93.93,0,0,1,.64.18l-.55.28,1.44.59,0,.21c-.72,0-1.44,0-2.15-.14a26.49,26.49,0,0,1-3.3-.69.74.74,0,0,1-.48-1Z" fill="#d1d3d4"></path><path d="M294.3,113.32l-.44,1c-.39-1.21-.21-1.6.61-1.63l.28-2c.71.44.92,1.64,2,1.25l.19.86-1.57.9Z" fill="#d1d3d4"></path><path d="M293.87,85.43a11.22,11.22,0,0,1-1.51-.16.62.62,0,0,1-.36-.5c0-.2.3-.35.49-.49a.46.46,0,0,1,.37-.08c1.1.42,2.21,0,3.32.09.21,0,.4.27.6.41-.18.17-.34.46-.54.49C295.46,85.31,294.68,85.36,293.87,85.43Z" fill="#d1d3d4"></path><path d="M317.22,175.7a4.65,4.65,0,0,1-.37.74c-.46.62-.94,1.23-1.44,1.82-.06.08-.29,0-.23-.17l-.69-1.36.61-1.63c.63-.29,1.1,1.52,2.09.26Z" fill="#d1d3d4"></path><path d="M145.87,86.73l-.07-.6,1.12.6-.27-.65a4.9,4.9,0,0,1,1.32,0c.17,0,.36.5.32.73s-.25.87-.46.91-.74-.23-1.12-.34-.52-.12-.78-.19a4.5,4.5,0,0,1-.81-.26,5.69,5.69,0,0,1-.71-.53c.12-.13.3-.39.34-.37a7,7,0,0,1,.8.54.83.83,0,0,1,.16.21Z" fill="#d1d3d4"></path><path d="M156.44,135.06a2.33,2.33,0,0,1,3-1c1.17.58,2.3,1.24,3.59,1.94l-1.78.2c-.39-.46-.63-.94-1-1.13a6.55,6.55,0,0,0-2.25-.74C157.52,134.3,157,134.77,156.44,135.06Z" fill="#d1d3d4"></path><path d="M281.64,136.94c1.32.39,1.54,1,1,1.75s-.32,1.11.61,1.3a7.13,7.13,0,0,1,.82.27l-.32.69c-.61-.58-1.62-.45-2.19-1.26C280.89,138.67,282.29,138,281.64,136.94Z" fill="#d1d3d4"></path><path d="M152.44,88.82A1.29,1.29,0,0,1,151.05,90c-.13,0-.36,0-.36.09-.12.79-.68.5-.83.21s-.33-1.1-.12-1.35.91-.36,1.39-.38A6.33,6.33,0,0,1,152.44,88.82Z" fill="#d1d3d4"></path><path d="M284.8,145.07l.13.7-.26.16-1.05-1.36-.8.16-.13-.21,2.5-1.4.17,1.95Z" fill="#d1d3d4"></path><path d="M267.93,80.52l-4.13,1c.05-.27,0-.63.14-.72A3.37,3.37,0,0,1,267.93,80.52Z" fill="#d1d3d4"></path><path d="M133.84,86.46a13,13,0,0,1,2-1,11.54,11.54,0,0,1,2-.33l.16.33a10.54,10.54,0,0,1-1,.89c-.06,0-.34-.25-.52-.38C135.82,86.79,134.16,87.07,133.84,86.46Z" fill="#d1d3d4"></path><path d="M162.83,137l1.46.14-.74-.86c1.4-.38,2.95.17,2.87,1C165.23,137.23,164,137.82,162.83,137Z" fill="#d1d3d4"></path><path d="M158.56,100c-.53,0-1,.19-1.18,0-.53-.45-.86-.08-1.33.07a5.24,5.24,0,0,1-1.49,0c1-1.59,1.28-1.69,2.51-1l.26.14Z" fill="#d1d3d4"></path><path d="M269.3,80.85l-.26,1c-2,.31-2.56.24-3.58-.62Z" fill="#d1d3d4"></path><path d="M224.65,81.3a23.54,23.54,0,0,1-2.9.13,6.91,6.91,0,0,1-2.06-.68h5Z" fill="#d1d3d4"></path><path d="M147.44,84.88l-3.25-.65.71-.32-1.08-.29,0-.31c.44,0,.88.07,1.31.16a5.36,5.36,0,0,1,1.25.4,10.92,10.92,0,0,1,1.16.75Z" fill="#d1d3d4"></path><path d="M272.58,82.39l-3.63.29-.14-.15c.59-.35,1.16-.91,1.78-1a6,6,0,0,1,2.07.54Z" fill="#d1d3d4"></path><path d="M257.27,143a11.35,11.35,0,0,1,1,1.76c.07.2-.31.73-.58.84-.54.21-.72-.17-.7-.68s0-1.19,0-1.78Z" fill="#d1d3d4"></path><path d="M297.56,179.93l-.95-2.08a9.52,9.52,0,0,1,1.69,0,.87.87,0,0,1,.32.78A6.86,6.86,0,0,1,297.56,179.93Z" fill="#d1d3d4"></path><path d="M287.84,120.71c1.05.85,1,1.87-.14,2.5l.07-1.46-.44-.25Z" fill="#d1d3d4"></path><path d="M241.87,80l2.46-.82.12.18c-.22.31-.4.84-.68.9a9.93,9.93,0,0,1-2,0Z" fill="#d1d3d4"></path><path d="M213.41,114.75l.64-.26c.07.18.23.39.17.5-.22.47.29,1.36-.81,1.42Z" fill="#d1d3d4"></path><path d="M217.41,118.37l-1.6-1,.05-.2h1.75Z" fill="#d1d3d4"></path><path d="M158.09,88.88l2.41.46-.08.36C159.67,89.44,158.6,90.53,158.09,88.88Z" fill="#d1d3d4"></path><path d="M147.8,83.74c.79.15,1.32.24,1.85.36a.36.36,0,0,1,.13.32.53.53,0,0,1-.29.3C148.78,84.94,148.28,84.68,147.8,83.74Z" fill="#d1d3d4"></path><path d="M282.78,132.38l-.78,2.35C281.34,133.69,281.51,133.06,282.78,132.38Z" fill="#d1d3d4"></path><path d="M299,153.55a3.47,3.47,0,0,0,1.21,0c.33-.13.55-.53,1-.72a4.13,4.13,0,0,1-.53.86A1.06,1.06,0,0,1,299,153.55Z" fill="#d1d3d4"></path><path d="M149,87.48l1.58-.53.15,1a8,8,0,0,1-1,0,3.77,3.77,0,0,1-.72-.23Z" fill="#d1d3d4"></path><path d="M285.83,155.62l-2.46,1.67A2.13,2.13,0,0,1,285.83,155.62Z" fill="#d1d3d4"></path><path d="M148.23,95l1.34.8,0,.2-2.16-.18Z" fill="#d1d3d4"></path><path d="M148.84,85.66l2,.18c-.71.88-1.35.33-2,.07Z" fill="#d1d3d4"></path><path d="M139.17,84.87l2-.3C140.81,85.46,140.13,85.6,139.17,84.87Z" fill="#d1d3d4"></path><path d="M290.18,120.3c.55,1.27-.93.75-.94,1.41C288.73,120.7,289.77,120.81,290.18,120.3Z" fill="#d1d3d4"></path><path d="M288.09,152.29h-1.86c.09-.2.16-.54.25-.55C287.09,151.7,287.77,151.56,288.09,152.29Z" fill="#d1d3d4"></path><path d="M244.48,80.17l1.52-.12,0,.45-1.48.19Z" fill="#d1d3d4"></path><path d="M150.51,200.77a.5.5,0,0,1-.5-.5V56.21a.51.51,0,0,1,.5-.5.5.5,0,0,1,.5.5V200.27A.5.5,0,0,1,150.51,200.77Z" fill="#d1d3d4"></path><path d="M212,200.77a.5.5,0,0,1-.5-.5V56.21a.5.5,0,1,1,1,0V200.27A.5.5,0,0,1,212,200.77Z" fill="#d1d3d4"></path><path d="M273.49,200.77a.5.5,0,0,1-.5-.5V56.21a.5.5,0,0,1,.5-.5.51.51,0,0,1,.5.5V200.27A.5.5,0,0,1,273.49,200.77Z" fill="#d1d3d4"></path><path d="M211.42,131.26l2.88.37.94-1.33,0-.18c-1.81-.23-3.62-.44-5.42-.68l-1.64-.21a.69.69,0,0,0-.87.46c-.12.35-.12.85.31,1a14,14,0,0,0,1.72.3c.58.09,1.17.19,1.76.25Z" fill="#231f20"></path><ellipse cx="208.42" cy="130.19" rx="4.62" ry="2" transform="translate(52.28 319.95) rotate(-82.54)" fill="#fff"></ellipse><path d="M207.93,135.28h-.18c-.74-.1-1.32-.77-1.64-1.88a9,9,0,0,1-.17-3.52c.38-2.89,1.72-4.94,3.14-4.75.74.09,1.32.76,1.64,1.88a9,9,0,0,1,.17,3.52C210.53,133.29,209.28,135.28,207.93,135.28Zm1-9.17c-.61,0-1.65,1.46-2,3.89a8,8,0,0,0,.14,3.11c.2.68.51,1.13.81,1.17.6.08,1.7-1.4,2-3.89a8.09,8.09,0,0,0-.14-3.12c-.19-.67-.5-1.12-.81-1.16Z" fill="#231f20"></path><path d="M208.33,127.3a3.78,3.78,0,0,1,.61,2.73,3.36,3.36,0,0,1-1.28,2.43l-6.92-1.57a1.36,1.36,0,0,1-1.05-1.5l.16-1.18a1.36,1.36,0,0,1,1.4-1.18Z" fill="#fff"></path><path d="M207.66,133h-.11l-6.92-1.57a1.84,1.84,0,0,1-1.43-2l.15-1.18a1.84,1.84,0,0,1,1.91-1.62l7.09.27a.53.53,0,0,1,.37.18,4.27,4.27,0,0,1,.71,3.11,3.73,3.73,0,0,1-1.51,2.79A.5.5,0,0,1,207.66,133Zm-6.47-5.43a.86.86,0,0,0-.85.75l-.15,1.18a.84.84,0,0,0,.66.94l6.69,1.52a3.07,3.07,0,0,0,.9-1.94,3.59,3.59,0,0,0-.38-2.19l-6.83-.26Z" fill="#231f20"></path><polygon points="149.91 241.25 174.13 249.76 180.63 212.96 149.91 241.25" fill="#231f20"></polygon><path d="M174.13,250.26a.45.45,0,0,1-.16,0l-24.23-8.51a.52.52,0,0,1-.32-.37.51.51,0,0,1,.15-.47l30.72-28.29a.5.5,0,0,1,.58-.07.48.48,0,0,1,.25.52l-6.49,36.81a.53.53,0,0,1-.24.34A.48.48,0,0,1,174.13,250.26Zm-23.27-9.21,22.88,8,6.14-34.76Z" fill="#231f20"></path><path d="M138.56,216.67s11.45-5.8,17.24-2.9,9.23,2.9,9,5-2.9,2.1-2.9,2.1,3.43,1.56,1.32,3a6.64,6.64,0,0,1-4.22,1.2s5.54,1.84,2.9,3.42-8.26,1.12-10.19,1.49-19,5.89-19,5.89Z" fill="#fff"></path><path d="M132.62,236.4a.54.54,0,0,1-.36-.14.5.5,0,0,1-.12-.51l6-19.23a.5.5,0,0,1,.25-.3c.48-.24,11.73-5.87,17.69-2.9a52.66,52.66,0,0,0,5.3,2.25c2.58,1,4.14,1.54,3.93,3.27a2.78,2.78,0,0,1-2,2.3,2.49,2.49,0,0,1,1.1,1.61,1.7,1.7,0,0,1-.89,1.56,7.47,7.47,0,0,1-2.46,1.11c1,.51,2,1.22,2.06,2.05,0,.39-.09,1-.95,1.48-1.93,1.16-5.18,1.28-7.79,1.37a20.4,20.4,0,0,0-2.57.18c-1.87.35-18.82,5.82-19,5.88A.39.39,0,0,1,132.62,236.4ZM139,217l-5.6,18.11c3.61-1.16,16.5-5.3,18.2-5.61a20.89,20.89,0,0,1,2.71-.2c2.36-.08,5.6-.2,7.32-1.22.14-.09.49-.32.46-.52-.06-.57-1.74-1.5-3.26-2a.49.49,0,0,1-.33-.58.5.5,0,0,1,.55-.39,6.17,6.17,0,0,0,3.87-1.11c.33-.23.48-.45.46-.65,0-.52-1-1.19-1.7-1.5a.5.5,0,0,1,.2-1c.09,0,2.2,0,2.41-1.67.1-.87-.72-1.25-3.29-2.21a52.44,52.44,0,0,1-5.4-2.28C150.47,211.66,140.47,216.3,139,217Z" fill="#231f20"></path><polygon points="149.91 241.25 158.75 199.64 185.22 204.3 177.19 245.4 149.91 241.25" fill="#fff"></polygon><path d="M177.2,245.9h-.08l-27.28-4.16a.51.51,0,0,1-.34-.21.49.49,0,0,1-.08-.39l8.84-41.6a.49.49,0,0,1,.57-.39l26.48,4.65a.51.51,0,0,1,.32.21.47.47,0,0,1,.08.38l-8,41.11A.51.51,0,0,1,177.2,245.9Zm-26.69-5.07,26.29,4,7.83-40.13-25.49-4.48Z" fill="#231f20"></path><path d="M167.56,230.6a7.07,7.07,0,1,1,7.07-7.07A7.08,7.08,0,0,1,167.56,230.6Zm0-13.14a6.07,6.07,0,1,0,6.07,6.07A6.07,6.07,0,0,0,167.56,217.46Z" fill="#d1d3d4"></path><path d="M151.54,215.18s12.86,1.14,11.58,3.55-9.47,1.89-9.47,1.89-.13,5.32-4.48,4.62" fill="#fff"></path><path d="M149.93,225.8a4.92,4.92,0,0,1-.84-.07.5.5,0,1,1,.16-1,2.91,2.91,0,0,0,2.43-.54c1.39-1.14,1.47-3.58,1.47-3.6a.5.5,0,0,1,.53-.49c3,.19,8.18-.07,9-1.62a.17.17,0,0,0,0-.19c-.65-1.19-6.94-2.25-11.19-2.63a.5.5,0,1,1,.08-1c1.8.15,10.85,1.05,12,3.14a1.21,1.21,0,0,1,0,1.14c-1.25,2.34-7.52,2.26-9.46,2.18a6,6,0,0,1-1.79,3.83A3.61,3.61,0,0,1,149.93,225.8Z" fill="#231f20"></path><path d="M172.19,238.69h-.08l-15.2-2.28a.5.5,0,0,1,.15-1l15.2,2.28a.5.5,0,0,1-.07,1Z" fill="#d1d3d4"></path><path d="M178.29,208.15h-.09l-13.7-2.35a.5.5,0,1,1,.17-1l13.7,2.34a.5.5,0,0,1-.08,1Z" fill="#d1d3d4"></path><path d="M175,211.14h-.09l-9.35-1.64a.5.5,0,0,1-.41-.58.51.51,0,0,1,.58-.41l9.36,1.64a.5.5,0,0,1-.09,1Z" fill="#d1d3d4"></path><path d="M169.69,222c-.57.28-.69.69-1.05.13-.2-.3.06-.91-.32-1.15s-1.65.75-1.35,1.17a6.25,6.25,0,0,0-1.22-1.39c-.37-.28-1.23-.74-1.7-.44s-.23.82.09,1.12c.47.45,1.07.82,1.3,1.42a2.37,2.37,0,0,1,0,1.51,10.6,10.6,0,0,0-.37,1.15,7.23,7.23,0,0,1-.95-.6.5.5,0,0,0-.51.87,8.33,8.33,0,0,0,3.36,1.48c1.06.2,2.54.4,3.38-.44a.5.5,0,0,0-.71-.71,1,1,0,0,1-.42.23,2.7,2.7,0,0,1-.31-.77,3.63,3.63,0,0,1,.59-1.2,4.39,4.39,0,0,1,1.48-1.22,1.07,1.07,0,0,1,.44-.19,2.62,2.62,0,0,1,.72.14.29.29,0,0,0,.16,0,.32.32,0,0,0,.13-.3C172.36,221.49,170.55,221.61,169.69,222Zm-2.79,4.24-.59-.17.07-.07c.33-.41,1-1.17,1.22-.23a1.65,1.65,0,0,0,.31.62A6.83,6.83,0,0,1,166.9,226.28Z" fill="#d1d3d4"></path><path d="M70,187.25s-15.34,41.88-4.38,46.12S118.79,224,118.79,224l-4.07-20.11Z" fill="#fff"></path><path d="M71.57,234.69a17.79,17.79,0,0,1-6.14-.85c-11.29-4.37,3.46-45,4.09-46.76a.48.48,0,0,1,.26-.28.5.5,0,0,1,.38,0l44.73,16.6a.48.48,0,0,1,.32.37l4.07,20.11a.51.51,0,0,1-.34.58C117.45,224.92,87,234.69,71.57,234.69ZM70.29,187.9a194.69,194.69,0,0,0-6.11,20.94C61,223,61.57,231.27,65.79,232.91c10.08,3.9,48-7.88,52.42-9.29l-3.93-19.4Z" fill="#231f20"></path><path d="M84.44,147.34s-7.29,4-19.73,47.53L87.16,203Z" fill="#FFD56D"></path><path d="M140.59,184.26s20.15,16.09,30.43,13.12c4.31-1.24,6.87-6.8,8.64-10.46,4.36-9,7.19-18.71,10.37-28.17,1.43-4.26,3.07-8.41,4.63-12.62,1-2.65,1.2-4.54,3-6.87,1.1-1.39,5.44-5.85,4-7.86s-5.36,2.67-5.56-1.58a5.76,5.76,0,0,1,1.15-3.16,21.34,21.34,0,0,0,4.43.65c.55,0,1.23-.06,1.43-.58s-.14-.89-.43-1.25c-2.37-2.84-6.07-5.06-9.66-4.18s-5.84,4.54-6.7,8.14c-1,4.06-.17,9.38-2.29,13-3.46,5.94-9,11.35-13.35,16.68-2.45,3-4.9,6-7.42,9-.64.75-2.58,3.86-3.7,4l-8.95-6.55" fill="#fff"></path><path d="M168.22,198.25c-10.77,0-27.18-13-27.94-13.6a.5.5,0,1,1,.63-.78c.2.16,20.06,15.89,30,13,4-1.14,6.48-6.37,8.16-9.84l.17-.35c3.48-7.19,6-15,8.48-22.46.62-1.89,1.23-3.78,1.87-5.66,1-3.06,2.18-6.12,3.3-9.08.45-1.18.89-2.37,1.33-3.55.26-.69.46-1.32.65-1.93A14.35,14.35,0,0,1,197.3,139c.16-.22.4-.5.68-.83,1.29-1.51,4.31-5,3.31-6.43-.35-.5-1-.31-2.14.07-.94.33-1.91.67-2.67.16a2.48,2.48,0,0,1-.84-2.08,6.22,6.22,0,0,1,1.22-3.45.49.49,0,0,1,.55-.22,21.14,21.14,0,0,0,4.33.63c.52,0,.87-.08.94-.25s0-.32-.35-.76c-2.09-2.51-5.6-4.89-9.15-4s-5.57,4.58-6.33,7.77a29.37,29.37,0,0,0-.58,4.92c-.19,2.89-.39,5.88-1.77,8.25-2.4,4.13-5.8,8-9.09,11.73-1.52,1.73-3,3.36-4.3,5-2.61,3.21-5,6.11-7.43,9-.14.17-.35.46-.61.81-1.28,1.77-2.42,3.24-3.42,3.33a.52.52,0,0,1-.34-.09L150.36,166a.51.51,0,0,1-.11-.7.5.5,0,0,1,.7-.11l8.76,6.4c.69-.3,2-2.08,2.55-2.88.28-.37.5-.68.66-.86,2.45-2.89,4.81-5.78,7.41-9,1.36-1.67,2.87-3.39,4.33-5.05a77.92,77.92,0,0,0,9-11.57c1.26-2.17,1.45-5,1.63-7.82a30.69,30.69,0,0,1,.61-5.08c.83-3.48,3.12-7.54,7.06-8.51s7.87,1.61,10.16,4.35a1.87,1.87,0,0,1,.52,1.75c-.17.44-.63,1-1.92.9a21.7,21.7,0,0,1-4.17-.58,4.8,4.8,0,0,0-.89,2.57c0,.69.17,1.14.4,1.3s1.08,0,1.78-.27c1.1-.38,2.47-.86,3.29.28,1.44,2-1.57,5.56-3.36,7.67-.28.32-.51.59-.67.79a13.52,13.52,0,0,0-2.28,4.77c-.2.61-.41,1.26-.67,2-.44,1.19-.89,2.38-1.33,3.56-1.12,2.95-2.27,6-3.3,9-.63,1.88-1.24,3.76-1.86,5.65-2.47,7.54-5,15.34-8.53,22.58l-.17.36c-1.75,3.62-4.4,9.1-8.78,10.36A10.34,10.34,0,0,1,168.22,198.25Z" fill="#231f20"></path><path d="M124.19,113.86s5.63,8.23,4.52,10-4.91.66-4.91.66" fill="#fff"></path><path d="M126.19,125.34a10.19,10.19,0,0,1-2.53-.36.51.51,0,0,1-.34-.62.49.49,0,0,1,.62-.34c1,.27,3.6.72,4.35-.45.58-.91-1.89-5.6-4.52-9.43a.51.51,0,0,1,.14-.7.5.5,0,0,1,.69.14c1.37,2,5.73,8.65,4.53,10.52A3.32,3.32,0,0,1,126.19,125.34Z" fill="#231f20"></path><path d="M122.84,102.88c3.55,2.8,2.62,8.86,2.66,12.79q.06,8.3-.25,16.58c-.13,3.51-9.2,3.73-10.82,2.71l1.64,13.82-19.17-7,.34-16s6-.06,9.43-7.25,3.11-18.17,3.11-18.17S119.37,100.14,122.84,102.88Z" fill="#fff"></path><path d="M116.07,149.27a.36.36,0,0,1-.17,0l-19.18-7a.5.5,0,0,1-.32-.48l.34-16a.51.51,0,0,1,.5-.49c.23,0,5.73-.16,9-7,3.34-7,3.06-17.83,3.06-17.93a.46.46,0,0,1,.13-.36.5.5,0,0,1,.36-.16c.39,0,9.81-.19,13.38,2.62h0c3.14,2.49,3,7.24,2.89,11,0,.76-.05,1.48,0,2.13,0,5.52,0,11.11-.25,16.61a3,3,0,0,1-1.89,2.53c-2.39,1.26-6.75,1.42-8.84.91l1.55,13a.49.49,0,0,1-.5.55ZM97.4,141.42,115.48,148l-1.54-13a.49.49,0,0,1,.23-.49.51.51,0,0,1,.53,0c1,.66,6.12.74,8.69-.62.88-.46,1.34-1,1.36-1.68.21-5.49.29-11.06.25-16.56,0-.67,0-1.4,0-2.17.1-3.59.24-8.06-2.51-10.23h0c-2.85-2.25-10.26-2.41-12.25-2.41,0,2.28-.1,11.46-3.16,17.88s-7.84,7.33-9.39,7.5Z" fill="#231f20"></path><polygon points="77.53 253.34 77.51 225.26 141.2 224.91 147.75 253.34 77.53 253.34" fill="#231f20"></polygon><path d="M147.75,253.84H77.53a.5.5,0,0,1-.5-.5l0-28.08a.5.5,0,0,1,.5-.5l63.69-.35a.46.46,0,0,1,.49.39l6.55,28.42a.51.51,0,0,1-.1.43A.49.49,0,0,1,147.75,253.84Zm-69.72-1h69.09l-6.32-27.43L78,225.76Z" fill="#231f20"></path><path d="M126.63,145.35c-9-7.81-38.33-9.15-42.19,2s-9.59,80.42-9.59,80.42c21.41,7.27,70.28.12,70.28.12l-6.86-33.43S136.39,153.77,126.63,145.35Z" fill="#FFD56D"></path><path d="M114.43,135s-4.66-.15-6.9-3.34c0,0,.29,5.57,7.54,7.89Z" fill="#231f20"></path><path d="M115.07,140l-.15,0c-7.49-2.4-7.88-8.1-7.89-8.34a.5.5,0,0,1,.91-.32c2.07,2.95,6.46,3.13,6.51,3.13a.5.5,0,0,1,.48.43l.64,4.55a.51.51,0,0,1-.17.45A.52.52,0,0,1,115.07,140Zm-6.61-6.68a9.71,9.71,0,0,0,6,5.44l-.47-3.34A10.84,10.84,0,0,1,108.46,133.33Z" fill="#231f20"></path><ellipse cx="122.27" cy="111.22" rx="1.98" ry="0.78" transform="translate(4.61 227.31) rotate(-86.9)" fill="#231f20"></ellipse><polygon points="126.63 145.35 159.09 166.15 146.69 199.64 122.1 189.69 126.63 145.35" fill="#FFD56D"></polygon><path d="M139.05,196.68a.48.48,0,0,1-.26-.07c-.15-.09-15.3-8.94-22.55-17.25a.5.5,0,1,1,.75-.65c7.14,8.18,22.16,16.95,22.31,17a.5.5,0,0,1-.25.93Z" fill="#231f20"></path><path d="M76.39,210.86h0a.5.5,0,0,1-.45-.55c1-11.54,4.62-42.11,4.65-42.42a.52.52,0,0,1,.56-.44.51.51,0,0,1,.44.56c0,.3-3.62,30.87-4.66,42.39A.5.5,0,0,1,76.39,210.86Z" fill="#231f20"></path><path d="M125.42,126.75s-7.22-.27-7.22,0a7.05,7.05,0,0,0,4,3.58,2.6,2.6,0,0,0,3.16-1.79Z" fill="#231f20"></path><path d="M123,130.91a3.32,3.32,0,0,1-.9-.13,7.11,7.11,0,0,1-4.38-4.06.54.54,0,0,1,.16-.37c.18-.17.39-.37,7.58-.1a.5.5,0,0,1,.48.51l0,1.76a.59.59,0,0,1,0,.14A3.12,3.12,0,0,1,123,130.91Zm-4-3.78a6.58,6.58,0,0,0,3.37,2.69,2,2,0,0,0,2.53-1.4l0-1.19C122.55,127.15,120.1,127.1,119,127.13Z" fill="#231f20"></path><path d="M88.24,96.74c-5.58,8.69-4.88,18.63-12.55,26.48-4.1,4.19-9,7.57-13.49,11.29A31.31,31.31,0,0,0,55,142.19a13,13,0,0,0-1.74,10.14c.79,2.7,2.74,5.24,2.29,8-.4,2.49-2.61,4.25-3.73,6.52-1.72,3.46-.62,7.8,1.78,10.82s5.89,5,9.38,6.62c14.39,6.8,33.26,12.55,47.59,2.39,6.63-4.7,10.73-12.51,5.82-19.91-1.39-2.1-3.38-4-3.71-6.47-.2-1.58.31-3.16.5-4.75.83-6.93-6.15-12.56-8.15-19-.66-2.17-1.2-4.49-.61-6.68s2.4-4.1,3.82-6c4.29-5.88,4.64-12.63,3.29-19.48,3.93-.27,12,1,12.41-4.75.5-7.21-13.64-9.3-18.5-9.42-5.3-.13-11.08.37-15,4A13.26,13.26,0,0,0,88.24,96.74Z" fill="#fff"></path><path d="M92.27,192.75c-8.45,0-18.24-2.66-29.51-8-3.49-1.65-7.06-3.61-9.56-6.76-2.29-2.88-3.75-7.5-1.84-11.35A16.67,16.67,0,0,1,53,164.12a9.31,9.31,0,0,0,2-3.85c.28-1.72-.45-3.36-1.22-5.1a21,21,0,0,1-1.06-2.7,13.44,13.44,0,0,1,1.79-10.54,32.1,32.1,0,0,1,7.32-7.81c1.36-1.11,2.75-2.19,4.13-3.28a91.43,91.43,0,0,0,9.32-8c4.33-4.42,5.91-9.45,7.59-14.77,1.23-3.87,2.49-7.87,4.9-11.63h0a13.54,13.54,0,0,1,2.28-2.72c4.21-3.85,10.41-4.2,15.35-4.08,3.49.09,13.42,1.26,17.38,5.61a5.72,5.72,0,0,1,1.6,4.35c-.36,5.15-6.21,5.15-10.49,5.16-.65,0-1.27,0-1.82,0,1.43,7.81.29,14.13-3.49,19.3-.33.47-.69.92-1,1.37A13.06,13.06,0,0,0,104.9,130c-.57,2.08,0,4.3.6,6.4a31.29,31.29,0,0,0,3.79,7.19c2.41,3.76,4.9,7.64,4.38,12-.06.51-.16,1-.25,1.51a10.13,10.13,0,0,0-.25,3.12c.22,1.7,1.29,3.11,2.42,4.6.42.54.83,1.09,1.21,1.65,3.41,5.14,3.89,13.62-6,20.6A31.23,31.23,0,0,1,92.27,192.75ZM88.66,97c-2.34,3.63-3.58,7.57-4.78,11.38-1.64,5.2-3.34,10.57-7.83,15.17a92.89,92.89,0,0,1-9.42,8.06c-1.38,1.08-2.76,2.16-4.11,3.27a30.58,30.58,0,0,0-7.1,7.55,12.43,12.43,0,0,0-1.69,9.74,21.52,21.52,0,0,0,1,2.58c.8,1.79,1.62,3.65,1.3,5.65a10.08,10.08,0,0,1-2.22,4.29,15.78,15.78,0,0,0-1.57,2.38c-1.71,3.46-.36,7.66,1.73,10.29,2.38,3,5.83,4.88,9.21,6.48,20.39,9.64,35.79,10.44,47.08,2.43,5.79-4.1,10.75-11.6,5.69-19.23-.36-.54-.76-1.07-1.16-1.6-1.16-1.53-2.37-3.11-2.62-5.07a10.63,10.63,0,0,1,.26-3.43c.09-.48.18-1,.23-1.45.49-4-1.8-7.62-4.22-11.39a31.51,31.51,0,0,1-3.9-7.43c-.69-2.24-1.25-4.64-.62-7a14,14,0,0,1,2.87-4.87c.35-.44.7-.88,1-1.33,3.7-5.07,4.75-11.31,3.21-19.1a.49.49,0,0,1,.1-.4.5.5,0,0,1,.36-.19c.71,0,1.56,0,2.45,0,4.1,0,9.2,0,9.49-4.23A4.76,4.76,0,0,0,122.09,96c-3.71-4.07-13.52-5.2-16.67-5.28-4.75-.12-10.7.21-14.65,3.82A12.55,12.55,0,0,0,88.66,97Z" fill="#231f20"></path><path d="M113.67,117.2a7.55,7.55,0,0,0-1.61-3.77,10.89,10.89,0,0,0-2-2.48,3.62,3.62,0,0,0-3-.86,3.37,3.37,0,0,0-2.14,1.75,6.35,6.35,0,0,0-.65,2.75A11.86,11.86,0,0,0,109.87,125l-.31-.33" fill="#fff"></path><path d="M109.87,125.53a.55.55,0,0,1-.25-.07,12.44,12.44,0,0,1-5.89-10.89,6.76,6.76,0,0,1,.71-3,3.84,3.84,0,0,1,2.47-2,4.09,4.09,0,0,1,3.42,1,11.26,11.26,0,0,1,2.14,2.59,7.93,7.93,0,0,1,1.69,4,.5.5,0,0,1-.48.52.48.48,0,0,1-.51-.49,7.33,7.33,0,0,0-1.53-3.5,10.64,10.64,0,0,0-1.94-2.37,3.12,3.12,0,0,0-2.57-.76,2.85,2.85,0,0,0-1.81,1.5,5.83,5.83,0,0,0-.59,2.53,11.44,11.44,0,0,0,4.79,9.59.49.49,0,0,1,.4.16l.31.32a.5.5,0,0,1-.36.85Z" fill="#231f20"></path><rect x="257.85" y="129.39" width="22.31" height="22.31" fill="#fff"></rect><path d="M280.16,152.2H257.85a.5.5,0,0,1-.5-.5V129.39a.5.5,0,0,1,.5-.5h22.31a.51.51,0,0,1,.5.5V151.7A.5.5,0,0,1,280.16,152.2Zm-21.81-1h21.31V129.89H258.35Z" fill="#d1d3d4"></path><path d="M276.09,134.67H261.91a.5.5,0,0,1-.5-.5.51.51,0,0,1,.5-.5h14.18a.5.5,0,0,1,.5.5A.5.5,0,0,1,276.09,134.67Z" fill="#d1d3d4"></path><path d="M276.09,138.84H261.91a.5.5,0,0,1-.5-.5.51.51,0,0,1,.5-.5h14.18a.5.5,0,0,1,.5.5A.5.5,0,0,1,276.09,138.84Z" fill="#d1d3d4"></path><path d="M276.09,143H261.91a.5.5,0,0,1-.5-.5.51.51,0,0,1,.5-.5h14.18a.5.5,0,0,1,.5.5A.5.5,0,0,1,276.09,143Z" fill="#d1d3d4"></path><path d="M270.52,147.18h-8.61a.5.5,0,0,1-.5-.5.51.51,0,0,1,.5-.5h8.61a.51.51,0,0,1,.5.5A.5.5,0,0,1,270.52,147.18Z" fill="#d1d3d4"></path><rect x="163.61" y="83.88" width="22.31" height="22.31" fill="#fff"></rect><path d="M185.92,106.69H163.61a.5.5,0,0,1-.5-.5V83.88a.5.5,0,0,1,.5-.5h22.31a.5.5,0,0,1,.5.5v22.31A.5.5,0,0,1,185.92,106.69Zm-21.81-1h21.31V84.38H164.11Z" fill="#d1d3d4"></path><path d="M181.86,89.16H167.67a.5.5,0,0,1-.5-.5.51.51,0,0,1,.5-.5h14.19a.51.51,0,0,1,.5.5A.5.5,0,0,1,181.86,89.16Z" fill="#d1d3d4"></path><path d="M181.86,93.33H167.67a.5.5,0,0,1-.5-.5.51.51,0,0,1,.5-.5h14.19a.51.51,0,0,1,.5.5A.5.5,0,0,1,181.86,93.33Z" fill="#d1d3d4"></path><path d="M181.86,97.5H167.67a.5.5,0,0,1-.5-.5.51.51,0,0,1,.5-.5h14.19a.51.51,0,0,1,.5.5A.5.5,0,0,1,181.86,97.5Z" fill="#d1d3d4"></path><path d="M173.28,101.67h-5.61a.5.5,0,0,1-.5-.5.51.51,0,0,1,.5-.5h5.61a.5.5,0,0,1,.5.5A.5.5,0,0,1,173.28,101.67Z" fill="#d1d3d4"></path><rect x="236.36" y="93.08" width="22.31" height="22.31" fill="#fff"></rect><path d="M258.67,115.89H236.36a.5.5,0,0,1-.5-.5V93.08a.5.5,0,0,1,.5-.5h22.31a.51.51,0,0,1,.5.5v22.31A.5.5,0,0,1,258.67,115.89Zm-21.81-1h21.31V93.58H236.86Z" fill="#d1d3d4"></path><path d="M254.6,98.37H240.42a.5.5,0,0,1-.5-.5.5.5,0,0,1,.5-.5H254.6a.5.5,0,0,1,.5.5A.5.5,0,0,1,254.6,98.37Z" fill="#d1d3d4"></path><path d="M254.6,102.53H240.42a.5.5,0,0,1-.5-.5.5.5,0,0,1,.5-.5H254.6a.5.5,0,0,1,.5.5A.5.5,0,0,1,254.6,102.53Z" fill="#d1d3d4"></path><path d="M249.31,106.7h-8.89a.5.5,0,0,1-.5-.5.5.5,0,0,1,.5-.5h8.89a.5.5,0,0,1,.5.5A.5.5,0,0,1,249.31,106.7Z" fill="#d1d3d4"></path><rect x="306.07" y="204.03" width="22.31" height="22.31" fill="#fff"></rect><path d="M328.38,226.84H306.07a.5.5,0,0,1-.5-.5V204a.5.5,0,0,1,.5-.5h22.31a.5.5,0,0,1,.5.5v22.31A.51.51,0,0,1,328.38,226.84Zm-21.81-1h21.31V204.53H306.57Z" fill="#d1d3d4"></path><path d="M324.31,209.31H310.13a.5.5,0,0,1,0-1h14.18a.5.5,0,0,1,0,1Z" fill="#d1d3d4"></path><path d="M324.31,213.48H310.13a.5.5,0,0,1,0-1h14.18a.5.5,0,0,1,0,1Z" fill="#d1d3d4"></path><path d="M319,217.65h-8.89a.5.5,0,0,1,0-1H319a.5.5,0,0,1,0,1Z" fill="#d1d3d4"></path><rect x="277.44" y="94.36" width="22.31" height="22.31" fill="#fff"></rect><path d="M299.75,117.17H277.44a.5.5,0,0,1-.5-.5V94.36a.5.5,0,0,1,.5-.5h22.31a.5.5,0,0,1,.5.5v22.31A.51.51,0,0,1,299.75,117.17Zm-21.81-1h21.31V94.86H277.94Z" fill="#d1d3d4"></path><path d="M295.69,99.64H281.5a.5.5,0,0,1,0-1h14.19a.5.5,0,0,1,0,1Z" fill="#d1d3d4"></path><path d="M295.69,103.81H281.5a.5.5,0,0,1,0-1h14.19a.5.5,0,0,1,0,1Z" fill="#d1d3d4"></path><path d="M295.39,108H281.5a.51.51,0,0,1-.5-.5.5.5,0,0,1,.5-.5h13.89a.5.5,0,0,1,.5.5A.5.5,0,0,1,295.39,108Z" fill="#d1d3d4"></path><path d="M267.61,129.88l1.35,2.58h1.63l.16-.09c-.84-1.61-1.72-3.21-2.56-4.82-.26-.49-.52-1-.77-1.46a.7.7,0,0,0-.87-.45c-.37.11-.77.4-.63.82a13.34,13.34,0,0,0,.74,1.58c.26.53.52,1.06.81,1.58C267.51,129.71,267.56,129.79,267.61,129.88Z" fill="#231f20"></path><ellipse cx="266.75" cy="126.81" rx="4.62" ry="2" transform="translate(-28.38 138.46) rotate(-27.69)" fill="#fff"></ellipse><path d="M264.18,130.1a2.07,2.07,0,0,1-2-.91,2.26,2.26,0,0,1,.6-2.42,9.15,9.15,0,0,1,2.78-2.17,8.9,8.9,0,0,1,3.36-1c1.16-.09,2,.22,2.33.89a2.23,2.23,0,0,1-.59,2.42,9.84,9.84,0,0,1-6.14,3.22Zm5.13-5.57H269a8.16,8.16,0,0,0-3,.95,7.87,7.87,0,0,0-2.46,1.91c-.45.55-.63,1.06-.49,1.33s.67.41,1.37.35a7.83,7.83,0,0,0,3-.94,7.92,7.92,0,0,0,2.47-1.91c.44-.55.63-1.06.49-1.33h0C270.27,124.67,269.87,124.53,269.31,124.53Z" fill="#231f20"></path><path d="M269.07,125.08a3.79,3.79,0,0,1-1.89,2.06,3.31,3.31,0,0,1-2.72.36l-2.7-6.56a1.36,1.36,0,0,1,.62-1.72l1.06-.55a1.34,1.34,0,0,1,1.76.46Z" fill="#fff"></path><path d="M265.36,128.14a3.07,3.07,0,0,1-1.09-.18.51.51,0,0,1-.27-.27l-2.7-6.56a1.85,1.85,0,0,1,.85-2.35l1.05-.55a1.84,1.84,0,0,1,2.42.63l3.86,6a.52.52,0,0,1,.07.4,4.31,4.31,0,0,1-2.13,2.37A4.23,4.23,0,0,1,265.36,128.14Zm-.53-1a3.1,3.1,0,0,0,2.11-.38,3.61,3.61,0,0,0,1.57-1.57l-3.72-5.74a.86.86,0,0,0-1.12-.29l-1.05.55a.86.86,0,0,0-.4,1.09Z" fill="#231f20"></path><path d="M246.17,92.59l1.35,2.58h1.63l.16-.08c-.85-1.61-1.72-3.22-2.56-4.83-.26-.48-.52-1-.77-1.46a.69.69,0,0,0-.87-.44c-.37.1-.77.39-.63.81a13.34,13.34,0,0,0,.74,1.58c.26.53.52,1.07.81,1.58A2.15,2.15,0,0,0,246.17,92.59Z" fill="#231f20"></path><ellipse cx="245.31" cy="89.53" rx="4.62" ry="2" transform="translate(-13.51 124.23) rotate(-27.69)" fill="#fff"></ellipse><path d="M242.74,92.81a2.07,2.07,0,0,1-2-.9,2.27,2.27,0,0,1,.6-2.43,10,10,0,0,1,6.14-3.22c1.16-.09,2,.23,2.33.89a2.23,2.23,0,0,1-.59,2.42,9.84,9.84,0,0,1-6.14,3.22Zm5.13-5.56h-.29a8.85,8.85,0,0,0-5.43,2.85c-.45.55-.63,1.06-.49,1.33s.67.41,1.37.36a7.86,7.86,0,0,0,3-1,8.06,8.06,0,0,0,2.47-1.9c.44-.55.63-1.06.49-1.34h0C248.83,87.38,248.43,87.25,247.87,87.25Z" fill="#231f20"></path><path d="M247.62,87.79a3.74,3.74,0,0,1-1.88,2.07,3.32,3.32,0,0,1-2.72.35l-2.7-6.56a1.36,1.36,0,0,1,.62-1.72l1.05-.55a1.36,1.36,0,0,1,1.77.46Z" fill="#fff"></path><path d="M243.92,90.85a3.07,3.07,0,0,1-1.09-.18.51.51,0,0,1-.27-.27l-2.7-6.56a1.85,1.85,0,0,1,.85-2.35l1-.55a1.84,1.84,0,0,1,2.42.63l3.86,6a.54.54,0,0,1,.07.41,4.68,4.68,0,0,1-4.19,2.92Zm-.53-1a3.1,3.1,0,0,0,2.11-.38,3.56,3.56,0,0,0,1.57-1.57l-3.73-5.73a.85.85,0,0,0-1.11-.3l-1,.56a.84.84,0,0,0-.4,1.08Z" fill="#231f20"></path><path d="M172.26,83.06l1.35,2.58h1.64l.16-.08c-.85-1.62-1.73-3.22-2.57-4.83-.26-.48-.51-1-.77-1.46a.69.69,0,0,0-.87-.44c-.36.1-.77.39-.63.81a15.22,15.22,0,0,0,.75,1.58c.26.53.51,1.07.8,1.58Z" fill="#231f20"></path><ellipse cx="171.4" cy="80" rx="4.62" ry="2" transform="translate(-17.54 88.8) rotate(-27.69)" fill="#fff"></ellipse><path d="M168.86,83.28a2.1,2.1,0,0,1-2-.9c-.66-1.26.79-3.24,3.37-4.59a9,9,0,0,1,3.36-1.06A1.88,1.88,0,0,1,175.34,80a8.88,8.88,0,0,1-2.78,2.17A8.33,8.33,0,0,1,168.86,83.28ZM174,77.72h-.29a7.88,7.88,0,0,0-3,.94c-2.23,1.17-3.24,2.7-3,3.24s2.12.58,4.35-.59a8,8,0,0,0,2.46-1.9c.45-.55.63-1.07.49-1.34h0C174.93,77.85,174.52,77.72,174,77.72Z" fill="#231f20"></path><path d="M173.72,78.26a3.82,3.82,0,0,1-1.89,2.07,3.3,3.3,0,0,1-2.71.35l-2.71-6.56A1.37,1.37,0,0,1,167,72.4l1.05-.55a1.36,1.36,0,0,1,1.77.46Z" fill="#fff"></path><path d="M170,81.32a3.07,3.07,0,0,1-1.09-.18.51.51,0,0,1-.27-.27L166,74.31a1.84,1.84,0,0,1,.86-2.35l1.05-.55a1.85,1.85,0,0,1,2.42.63L174.14,78a.49.49,0,0,1,.06.41A4.68,4.68,0,0,1,170,81.32Zm-.52-1a3.07,3.07,0,0,0,2.1-.38,3.55,3.55,0,0,0,1.57-1.57l-3.72-5.73a.86.86,0,0,0-1.12-.3l-1,.56a.85.85,0,0,0-.39,1.08Z" fill="#231f20"></path><path d="M286.6,94.38,288,97h1.64l.15-.08c-.84-1.62-1.72-3.22-2.56-4.83l-.77-1.46a.69.69,0,0,0-.87-.44c-.36.1-.77.39-.63.81a13.41,13.41,0,0,0,.75,1.58c.25.53.51,1.07.8,1.58Z" fill="#231f20"></path><ellipse cx="285.74" cy="91.32" rx="4.62" ry="2" transform="translate(-9.71 143.22) rotate(-27.69)" fill="#fff"></ellipse><path d="M283.18,94.6a2.06,2.06,0,0,1-2-.91,2.24,2.24,0,0,1,.59-2.42,9.84,9.84,0,0,1,6.14-3.22,1.88,1.88,0,0,1,1.74,3.31,9,9,0,0,1-2.78,2.17,8.9,8.9,0,0,1-3.36,1ZM288.31,89H288a7.83,7.83,0,0,0-3,.94,7.92,7.92,0,0,0-2.47,1.91c-.44.55-.63,1.06-.49,1.33s.67.41,1.38.36a9,9,0,0,0,5.43-2.85c.45-.55.63-1.07.49-1.34h0C289.27,89.17,288.86,89,288.31,89Z" fill="#231f20"></path><path d="M288.06,89.58a3.82,3.82,0,0,1-1.89,2.07,3.32,3.32,0,0,1-2.72.35l-2.7-6.56a1.37,1.37,0,0,1,.63-1.72l1.05-.55a1.36,1.36,0,0,1,1.77.46Z" fill="#fff"></path><path d="M284.35,92.64a3.07,3.07,0,0,1-1.09-.18.51.51,0,0,1-.27-.27l-2.7-6.56a1.85,1.85,0,0,1,.85-2.35l1.06-.55a1.85,1.85,0,0,1,2.42.63l3.86,6a.49.49,0,0,1,.06.41,4.68,4.68,0,0,1-4.19,2.92Zm-.52-1a3.08,3.08,0,0,0,2.1-.38,3.61,3.61,0,0,0,1.57-1.57l-3.72-5.73a.86.86,0,0,0-1.12-.3l-1.05.56a.84.84,0,0,0-.4,1.08Z" fill="#231f20"></path><path d="M71,115.39s71.09-9,71.42-23.81-30.06-12.07-53.91-2.7C65.69,97.85,55.63,115.79,71,115.39Z" fill="#fff"></path><path d="M70.5,115.89c-5.59,0-7-2.52-7.26-4-1.21-6,8.8-17,25.09-23.43,17.71-7,41.51-10.88,50.72-4.44a8.55,8.55,0,0,1,3.87,7.62c-.34,15-68.93,23.92-71.85,24.29H70.5Zm.5-.5h0Zm53.65-33.72c-10.76,0-24.6,3.22-35.95,7.68-15.38,6-25.61,16.75-24.48,22.29.57,2.81,4,3.31,6.74,3.25.77-.1,18.24-2.37,35.52-6.36,23.06-5.31,35.31-11.18,35.44-17a7.61,7.61,0,0,0-3.44-6.77C135.35,82.6,130.45,81.67,124.65,81.67Z" fill="#231f20"></path><path d="M120.6,90.57s-18.15,13.74-37,12.44c0,0-4.7-16.32,4.78-23.5S109.75,75,112.9,77.05C118.2,80.59,120.6,90.57,120.6,90.57Z" fill="#fff"></path><path d="M86.1,103.59c-.85,0-1.7,0-2.55-.08a.5.5,0,0,1-.44-.36A35.93,35.93,0,0,1,81.93,94c0-6.68,2.14-11.81,6.14-14.84,9.62-7.28,21.69-4.75,25.11-2.47,5.4,3.6,7.81,13.4,7.91,13.81a.51.51,0,0,1-.19.52C120.73,91.1,104,103.59,86.1,103.59ZM84,102.53c17.11,1,33.75-10.51,36.05-12.16-.46-1.72-2.86-9.86-7.41-12.9-3.13-2.09-14.86-4.44-23.94,2.44C80.32,86.23,83.39,100.18,84,102.53Z" fill="#231f20"></path><path d="M82.42,98a.5.5,0,0,1,0-1c.25,0,25.52-3.15,36-12.25a.51.51,0,0,1,.71.05.49.49,0,0,1-.06.7C108.31,94.8,83.53,97.86,82.48,98Z" fill="#231f20"></path><rect x="251.36" y="206.44" width="49.47" height="30.31" fill="#fff"></rect><path d="M300.83,237.25H251.36a.5.5,0,0,1-.5-.5V206.44a.5.5,0,0,1,.5-.5h49.47a.5.5,0,0,1,.5.5v30.31A.51.51,0,0,1,300.83,237.25Zm-49-1h48.47V206.94H251.86Z" fill="#d1d3d4"></path><path d="M296.88,234.06H255.31a.5.5,0,0,1-.5-.5V209.62a.5.5,0,0,1,.5-.5h41.57a.5.5,0,0,1,.5.5v23.94A.5.5,0,0,1,296.88,234.06Zm-41.07-1h40.57V210.12H255.81Z" fill="#d1d3d4"></path><path d="M255.31,228.05a.51.51,0,0,1-.4-.2.5.5,0,0,1,.1-.7c2.76-2.1,16.7-12.51,19.34-11.62s11.55,9.78,11.93,10.16a.5.5,0,0,1-.71.71c-2.53-2.54-9.55-9.26-11.53-9.92-1.43-.46-10.49,5.45-18.43,11.47A.57.57,0,0,1,255.31,228.05Z" fill="#d1d3d4"></path><path d="M296.88,225.23a.51.51,0,0,1-.36-.15c-1.24-1.3-4.84-4.73-6.55-5-1.43-.24-4.18,2.57-5.59,4.39a.5.5,0,0,1-.79-.61c.41-.53,4.08-5.18,6.55-4.76s6.62,4.8,7.1,5.31a.49.49,0,0,1,0,.7A.45.45,0,0,1,296.88,225.23Z" fill="#d1d3d4"></path><path d="M284.71,218.38a2.57,2.57,0,1,1,2.56-2.56A2.57,2.57,0,0,1,284.71,218.38Zm0-4.13a1.57,1.57,0,1,0,1.56,1.57A1.57,1.57,0,0,0,284.71,214.25Z" fill="#d1d3d4"></path><rect x="273.98" y="202.35" width="4.22" height="5.91" fill="#d1d3d4"></rect></g></svg>