<svg xmlns="http://www.w3.org/2000/svg" viewBox="0 0 400 300" width="406" height="306" class="illustration styles_illustrationTablet__1DWOa"><g id="_102_traveling" data-name="#102_traveling"><path d="M345,212.89H55.05a.51.51,0,0,1-.5-.5V198a.5.5,0,0,1,.5-.5H345a.5.5,0,0,1,.5.5v14.39A.51.51,0,0,1,345,212.89Zm-289.4-1h288.9V198.5H55.55Z" fill="#d1d3d4"></path><path d="M345,198.5H55.05a.51.51,0,0,1-.5-.5V57.07a.5.5,0,0,1,.5-.5H345a.5.5,0,0,1,.5.5V198A.51.51,0,0,1,345,198.5Zm-289.4-1h288.9V57.57H55.55Z" fill="#d1d3d4"></path><path d="M146.27,198.5a.5.5,0,0,1-.5-.5V57.07a.5.5,0,0,1,.5-.5.5.5,0,0,1,.5.5V198A.51.51,0,0,1,146.27,198.5Z" fill="#d1d3d4"></path><path d="M253.73,198.5a.51.51,0,0,1-.5-.5V57.07a.5.5,0,0,1,.5-.5.5.5,0,0,1,.5.5V198A.5.5,0,0,1,253.73,198.5Z" fill="#d1d3d4"></path><path d="M345,128H55.05a.5.5,0,0,1-.5-.5.51.51,0,0,1,.5-.5H345a.51.51,0,0,1,.5.5A.5.5,0,0,1,345,128Z" fill="#d1d3d4"></path><path d="M196.54,89a34.74,34.74,0,0,1,9.28.58c4.84,1.06,9.56,3.9,11.63,8.41,1.39,3,1.46,6.52,1.5,9.87l.15,11.58,0,3.71c0,2.82.07,5.64.06,8.46a44.76,44.76,0,0,1-.69,8.74c-1,4.64-3.49,9.21-7.71,11.35a18.18,18.18,0,0,1-9,1.51,33.41,33.41,0,0,1-18.47-6.2,24.71,24.71,0,0,1-9.94-16.48c-.38-3.17.61-6.67.72-9.93a98.24,98.24,0,0,1,.89-11.11c.94-6.45,2.74-14.86,8.92-18.37,2.13-1.21,4.66-1.46,7.09-1.69C192.84,89.24,194.69,89.07,196.54,89Z" fill="#231f20"></path><path d="M203.2,153.72c-.46,0-.94,0-1.43,0A33.53,33.53,0,0,1,183,147.39a25.06,25.06,0,0,1-10.13-16.82,24.56,24.56,0,0,1,.32-6.15c.17-1.28.35-2.61.39-3.86a97.35,97.35,0,0,1,.89-11.17c1-6.86,3-15.19,9.18-18.72,2.26-1.28,4.93-1.53,7.29-1.75,1.71-.16,3.65-.34,5.55-.44h0a35.53,35.53,0,0,1,9.42.59c5.56,1.22,10,4.47,12,8.69,1.46,3.2,1.51,6.85,1.55,10.07l.19,15.29c0,2.83.07,5.68.05,8.48a45.35,45.35,0,0,1-.7,8.83c-1.11,5.43-4,9.69-8,11.69A16.83,16.83,0,0,1,203.2,153.72Zm-6.64-64.24c-1.87.09-3.81.27-5.51.43-2.26.21-4.82.45-6.89,1.62-5.85,3.32-7.71,11.37-8.68,18a97.3,97.3,0,0,0-.89,11.06,37.75,37.75,0,0,1-.4,4,24.72,24.72,0,0,0-.32,5.9,24.06,24.06,0,0,0,9.75,16.14,32.59,32.59,0,0,0,18.2,6.1c3.7.16,6.49-.3,8.75-1.45,3.68-1.87,6.39-5.88,7.45-11a44.71,44.71,0,0,0,.68-8.64c0-2.79,0-5.63,0-8.38l-.19-15.37c0-3.12-.09-6.66-1.47-9.66-1.8-3.94-6-7-11.28-8.13a34.35,34.35,0,0,0-9.15-.57Zm0-.5h0Z" fill="#231f20"></path><path d="M158.34,106.65l-15.22,10.62L131,94.1s.76-9.61-.76-10.67-2.28,3.36-2.28,3.36-3.35-9.31-4.41-8.92-5,2.82-5,5.25,13.69,47.19,17.64,49,34.6-16.29,34.6-16.29" fill="#fff"></path><path d="M136.78,132.74a2.12,2.12,0,0,1-.87-.15c-1.85-.86-5.4-9.13-10.57-24.58C121.69,97.1,118,84.53,118,83.12c0-2.79,4.26-5.33,5.35-5.72a.72.72,0,0,1,.57,0c1.07.5,2.88,4.94,3.91,7.66.3-.93.77-2,1.47-2.24a1.2,1.2,0,0,1,1.2.17c1.59,1.11,1.17,8.5,1,11l11.84,22.54,14.76-10.3a.5.5,0,0,1,.57.82L143.4,117.68a.51.51,0,0,1-.4.08.54.54,0,0,1-.33-.26L130.51,94.33a.42.42,0,0,1-.06-.27c.36-4.48.25-9.67-.55-10.23-.14-.09-.2-.07-.23-.06-.52.22-1.07,1.94-1.27,3.11a.5.5,0,0,1-.45.41.48.48,0,0,1-.51-.33c-1.35-3.74-3.18-8-3.9-8.57-1.12.47-4.56,2.69-4.56,4.73,0,2.8,13.93,47,17.35,48.56,2.72,1.26,22.38-9.32,34.14-16.27a.5.5,0,0,1,.51.86C168,118,142.94,132.74,136.78,132.74Z" fill="#231f20"></path><rect x="267.48" y="251.73" width="4.87" height="6.24" rx="1.93" fill="#231f20"></rect><path d="M270.41,258.46h-1A2.43,2.43,0,0,1,267,256v-2.37a2.43,2.43,0,0,1,2.43-2.43h1a2.43,2.43,0,0,1,2.43,2.43V256A2.43,2.43,0,0,1,270.41,258.46Zm-1-6.23a1.43,1.43,0,0,0-1.43,1.43V256a1.43,1.43,0,0,0,1.43,1.43h1a1.43,1.43,0,0,0,1.43-1.43v-2.37a1.43,1.43,0,0,0-1.43-1.43Z" fill="#231f20"></path><rect x="245.96" y="251.73" width="4.87" height="6.24" rx="1.93" fill="#231f20"></rect><path d="M248.89,258.46h-1a2.43,2.43,0,0,1-2.43-2.43v-2.37a2.43,2.43,0,0,1,2.43-2.43h1a2.44,2.44,0,0,1,2.44,2.43V256A2.44,2.44,0,0,1,248.89,258.46Zm-1-6.23a1.43,1.43,0,0,0-1.43,1.43V256a1.43,1.43,0,0,0,1.43,1.43h1a1.44,1.44,0,0,0,1.44-1.43v-2.37a1.44,1.44,0,0,0-1.44-1.43Z" fill="#231f20"></path><polygon points="227.71 197.88 243.53 188.9 279.32 188.9 289.76 239.55 276.83 251.11 227.71 197.88" fill="#fff"></polygon><path d="M276.83,251.61a.46.46,0,0,1-.36-.16l-49.13-53.23a.5.5,0,0,1,.12-.78l15.82-9a.51.51,0,0,1,.24-.07h35.8a.5.5,0,0,1,.49.4l10.44,50.65a.5.5,0,0,1-.15.48l-12.93,11.56A.54.54,0,0,1,276.83,251.61ZM228.5,198l48.37,52.41,12.35-11-10.31-50H243.66Z" fill="#231f20"></path><polygon points="276.83 251.11 238.51 251.11 227.71 197.88 266.04 197.88 276.83 251.11" fill="#fff"></polygon><path d="M276.83,251.61H238.51a.49.49,0,0,1-.49-.4L227.22,198a.53.53,0,0,1,.1-.42.5.5,0,0,1,.39-.18H266a.49.49,0,0,1,.49.4L277.32,251a.49.49,0,0,1-.1.42A.48.48,0,0,1,276.83,251.61Zm-37.91-1h37.3l-10.59-52.23H228.32Z" fill="#231f20"></path><polygon points="243.53 249.67 244.44 252.71 271.51 252.71 270.98 249.67 243.53 249.67" fill="#231f20"></polygon><path d="M271.51,253.21H244.44a.5.5,0,0,1-.48-.36l-.91-3a.49.49,0,0,1,.07-.44.51.51,0,0,1,.4-.2H271a.49.49,0,0,1,.49.41l.53,3a.47.47,0,0,1-.11.41A.49.49,0,0,1,271.51,253.21Zm-26.7-1h26.11l-.36-2H244.2Z" fill="#231f20"></path><path d="M255.24,200.32H236.17a.5.5,0,0,1-.49-.39l-8.61-39.14a.49.49,0,0,1,.09-.42.51.51,0,0,1,.39-.19h19.57a.49.49,0,0,1,.49.4l8.12,39.14a.5.5,0,0,1-.11.42A.46.46,0,0,1,255.24,200.32Zm-18.67-1h18.05l-7.9-38.14H228.18Z" fill="#231f20"></path><path d="M266,198.38a.48.48,0,0,1-.42-.23.49.49,0,0,1,.14-.69l11.66-7.61a.51.51,0,0,1,.7.15.5.5,0,0,1-.15.69l-11.66,7.61A.56.56,0,0,1,266,198.38Z" fill="#231f20"></path><path d="M249.56,161.18H225.22a.5.5,0,0,1-.5-.5.51.51,0,0,1,.5-.5h24.34a.51.51,0,0,1,.5.5A.5.5,0,0,1,249.56,161.18Z" fill="#231f20"></path><polygon points="167.46 237.23 163.71 246.17 155.13 242.41 159.03 232.55 167.46 237.23" fill="#fff"></polygon><path d="M159,232.55l8.43,4.68-3.75,8.94-8.58-3.77,3.9-9.85m0-1a.92.92,0,0,0-.33.06,1,1,0,0,0-.6.57L154.2,242a1,1,0,0,0,.53,1.28l8.58,3.77a1.1,1.1,0,0,0,.4.08.94.94,0,0,0,.37-.07,1,1,0,0,0,.55-.54l3.75-8.94a1,1,0,0,0-.44-1.26l-8.42-4.68a1,1,0,0,0-.49-.13Z" fill="#231f20"></path><path d="M164.7,245.79l-4.64,11.79s-24.45-8.79-26-10.37,3.79-3.5,4.82-3.19,5,1.36,6.44,1.18,9.21-4.11,9.21-4.11Z" fill="#231f20"></path><path d="M160.06,258.08a.51.51,0,0,1-.17,0c-2.51-.91-24.6-8.87-26.21-10.49a1.3,1.3,0,0,1-.22-1.69c.85-1.42,4.46-2.65,5.53-2.33s5,1.33,6.24,1.17c1-.13,6-2.5,9.05-4.06a.5.5,0,0,1,.43,0l10.2,4.7a.49.49,0,0,1,.25.63l-4.64,11.79A.48.48,0,0,1,160.06,258.08Zm-21.53-13.6c-.85,0-3.61.89-4.22,1.9a.32.32,0,0,0,.07.47c1.09,1.09,15.61,6.57,25.39,10.1l4.29-10.9-9.55-4.4c-1.43.72-7.78,3.87-9.15,4-1.56.19-5.71-.92-6.66-1.2A.42.42,0,0,0,138.53,244.48Z" fill="#231f20"></path><polygon points="209.04 213.43 216.82 219.21 211.11 226.64 202.48 220.49 209.04 213.43" fill="#fff"></polygon><path d="M209,213.43l7.78,5.78-5.71,7.43-8.63-6.15,6.56-7.06m0-1a1,1,0,0,0-.74.32l-6.55,7.06a1,1,0,0,0-.27.78,1,1,0,0,0,.42.72l8.63,6.14a1,1,0,0,0,.58.19,1,1,0,0,0,.8-.39l5.7-7.43a1,1,0,0,0,.2-.75,1,1,0,0,0-.39-.66l-7.79-5.78a1,1,0,0,0-.59-.2Z" fill="#231f20"></path><path d="M216.69,218.16,227,225.48s-14.38,21.64-16.29,22.79-2.49-4.51-1.95-5.43,2.53-4.56,2.69-6-1.78-9.93-1.78-9.93Z" fill="#231f20"></path><path d="M210.23,248.93a1.35,1.35,0,0,1-.94-.42c-1.18-1.17-1.5-5-.93-5.93s2.47-4.51,2.62-5.78c.11-1-1-6.37-1.78-9.76a.53.53,0,0,1,.1-.42l7-8.77a.5.5,0,0,1,.68-.1l10.33,7.33a.49.49,0,0,1,.13.68C226,228,212.94,247.52,211,248.7A1.45,1.45,0,0,1,210.23,248.93Zm0-21.87c.35,1.56,1.9,8.48,1.74,9.86-.18,1.55-2.25,5.32-2.76,6.17-.29.49-.12,3.81.78,4.71a.33.33,0,0,0,.48,0c1.31-.8,10.11-13.58,15.87-22.24l-9.56-6.77Z" fill="#231f20"></path><path d="M166,139.7s-16.61,44.3-12.28,47.53,49,39.25,49,39.25l10.95-14.08s-31.82-23.85-32.73-26.69,7.9-43.2,7.9-43.2Z" fill="#231f20"></path><path d="M202.68,227a.52.52,0,0,1-.32-.11c-.44-.36-44.71-36.05-49-39.24-4.5-3.36,10.4-43.54,12.12-48.11a.51.51,0,0,1,.52-.32L188.86,142a.5.5,0,0,1,.35.21.49.49,0,0,1,.08.39c-3.54,16.17-8.56,40.95-7.92,42.94s20.31,17.26,32.56,26.44a.5.5,0,0,1,.09.7l-11,14.08a.46.46,0,0,1-.34.19Zm-36.4-86.74c-6.36,17-15.23,44.42-12.31,46.59,4.07,3,44.19,35.37,48.62,38.94l10.34-13.28c-4.73-3.55-31.6-23.82-32.51-26.63s6.46-36.87,7.78-42.92Z" fill="#231f20"></path><path d="M202.61,146.37l-32.26,93s-20.68-5.88-19.26-6.94c-1.76,1.31,21.51-63.13,27.58-90.1Z" fill="#231f20"></path><path d="M170.35,239.84a.3.3,0,0,1-.13,0c-8.84-2.51-19.43-5.79-19.69-7.17a.81.81,0,0,1,0-.22c-.09-1,1.13-5,7.43-24,7-21.18,16.61-50.19,20.22-66.24a.49.49,0,0,1,.57-.38l23.94,4.06a.52.52,0,0,1,.35.23.56.56,0,0,1,0,.42l-32.26,93A.5.5,0,0,1,170.35,239.84Zm-18.77-7.37c1.23,1,10.09,3.88,18.46,6.27l31.9-92-22.89-3.88c-3.7,16.19-13.19,44.87-20.14,65.88-3.84,11.6-7.18,21.69-7.41,23.37A.47.47,0,0,1,151.58,232.47Z" fill="#231f20"></path><path d="M210.26,122.9l9.31-8.92c-5-8.58-6.78-14.39-10.23-16.19-4.46-3.08-20.25-1-29.74-.52A29.3,29.3,0,0,0,170.68,99a53,53,0,0,0-17,10.1l11.51,14.2,2.74-4.16s-1.62,8.11-5.42,24.54a99.56,99.56,0,0,1,39.58,5.78S210.25,125.73,210.26,122.9Z" fill="#FFD56D"></path><path d="M190.85,125.35a.48.48,0,0,1-.24-.06.49.49,0,0,1-.2-.68c.1-.19,10.42-19.32,7-26.68-.78-1.68-3.15-3.16-5.76-3.6a8.1,8.1,0,0,0-7.35,2.28,27.31,27.31,0,0,0-7.94,17.44,23.08,23.08,0,0,0,.9,8.24.5.5,0,0,1-.94.33c-.05-.14-4.84-14.07,7.26-26.7a9.07,9.07,0,0,1,8.23-2.57c3,.49,5.58,2.16,6.51,4.16,3.62,7.82-6.61,26.78-7.05,27.58A.49.49,0,0,1,190.85,125.35Z" fill="#231f20"></path><path d="M177,65.75s-6.23.09-3.29,7.06C175.6,77.34,189,78.09,189,78.09S188.94,69.68,177,65.75Z" fill="#231f20"></path><path d="M189,78.59h0c-.56,0-13.7-.82-15.71-5.59-1-2.45-1.1-4.39-.19-5.78a5.09,5.09,0,0,1,3.93-2l.16,0c12.18,4,12.34,12.46,12.34,12.82a.48.48,0,0,1-.16.36A.48.48,0,0,1,189,78.59ZM176.9,66.25a4.1,4.1,0,0,0-3,1.52c-.71,1.09-.62,2.72.28,4.85,1.4,3.31,10.3,4.64,14.28,4.94C188.19,75.69,186.69,69.5,176.9,66.25Z" fill="#231f20"></path><path d="M182.69,72.68a8.67,8.67,0,0,1,.53-.81c2.12-3,7.74-2,10.69-1.13a16.74,16.74,0,0,1,7.47,4.07c1.62,1.65,3.13,4.33,2.83,6.73s-1.82,5.22-3,7.24a8.57,8.57,0,0,1-2.82,3.12,8.92,8.92,0,0,1-4,1,15.83,15.83,0,0,1-8.7-1.61,10.4,10.4,0,0,1-5.24-7.78A18.5,18.5,0,0,1,182.69,72.68Z" fill="#fff"></path><path d="M192.91,93.41a14.93,14.93,0,0,1-7.53-1.71c-2.57-1.46-5.27-4.56-5.5-8.19a19.07,19.07,0,0,1,2.37-11.1,9.33,9.33,0,0,1,.55-.84c2.44-3.42,8.68-2.07,11.25-1.33a17.1,17.1,0,0,1,7.7,4.21c1.58,1.61,3.31,4.44,3,7.15a20.55,20.55,0,0,1-3.11,7.45,7.54,7.54,0,0,1-7.25,4.32C193.86,93.4,193.38,93.41,192.91,93.41Zm-4.56-23c-1.89,0-3.73.42-4.71,1.79-.18.25-.35.51-.51.77h0a18.17,18.17,0,0,0-2.23,10.5,9.88,9.88,0,0,0,5,7.36c2.15,1.23,4.9,1.73,8.41,1.54a8.41,8.41,0,0,0,3.79-.89,8.2,8.2,0,0,0,2.64-2.93,19.73,19.73,0,0,0,3-7c.27-2.2-1.15-4.75-2.69-6.31a16.09,16.09,0,0,0-7.24-3.94A21.25,21.25,0,0,0,188.35,70.38Zm-5.66,2.3h0Z" fill="#231f20"></path><path d="M184.21,92.67l-.87,7.22s2,4.58,6.71,3.68a9.56,9.56,0,0,0,6.59-4.93l.59-13.19s-3.38-2-2-9.5A23.22,23.22,0,0,1,183,77.05s-2.52,8.06-2.13,11.71S184.21,92.67,184.21,92.67Z" fill="#fff"></path><path d="M188.84,104.2c-4.15,0-6-4.06-6-4.1a.51.51,0,0,1,0-.27l.82-6.76a4.56,4.56,0,0,1-3.29-4.25c-.39-3.72,2-11.59,2.15-11.92a.53.53,0,0,1,.59-.36A22.9,22.9,0,0,0,195,75.48a.51.51,0,0,1,.53.07.5.5,0,0,1,.18.5c-1.29,7,1.73,8.94,1.76,9a.5.5,0,0,1,.24.46l-.58,13.19a.65.65,0,0,1,0,.2,10.05,10.05,0,0,1-7,5.22A7.49,7.49,0,0,1,188.84,104.2Zm-5-4.39c.34.69,2.18,4,6.08,3.25a9.17,9.17,0,0,0,6.18-4.55l.57-12.81c-.78-.64-3-3-2.12-9a24.17,24.17,0,0,1-11.21.89c-.51,1.7-2.3,8-2,11.07s2.77,3.43,2.87,3.44a.53.53,0,0,1,.47.58Z" fill="#231f20"></path><path d="M194.5,85.08a3.11,3.11,0,0,1,1.11-1.58,5.38,5.38,0,0,1,1.68-.74,2.15,2.15,0,0,1,1-.13,2,2,0,0,1,.65.27A2.39,2.39,0,0,1,200,84.14a2.89,2.89,0,0,1,0,1.34,5.68,5.68,0,0,1-.43,1.4,3.73,3.73,0,0,1-5,1.7" fill="#fff"></path><path d="M196.25,89.48a4.31,4.31,0,0,1-1.9-.44.52.52,0,0,1-.23-.7.53.53,0,0,1,.69-.23,3.28,3.28,0,0,0,2.46.18,3.25,3.25,0,0,0,1.84-1.63,4.86,4.86,0,0,0,.39-1.28,2.37,2.37,0,0,0,0-1.09,2,2,0,0,0-.85-1,1.26,1.26,0,0,0-.47-.2,1.8,1.8,0,0,0-.76.11,5,5,0,0,0-1.52.67,2.56,2.56,0,0,0-.93,1.31.52.52,0,0,1-1-.29,3.56,3.56,0,0,1,1.31-1.85,5.89,5.89,0,0,1,1.84-.83,2.62,2.62,0,0,1,1.22-.14,2.36,2.36,0,0,1,.84.34A2.84,2.84,0,0,1,200.5,84a3.25,3.25,0,0,1,0,1.58,5.5,5.5,0,0,1-.47,1.54,4.24,4.24,0,0,1-2.44,2.15A4.19,4.19,0,0,1,196.25,89.48Z" fill="#231f20"></path><path d="M184,96.27a6.06,6.06,0,0,0,4.86-1.33c2.16-1.89,2-3,2-3s-3.41,1.66-6.44.9Z" fill="#231f20"></path><path d="M184.91,96.84a5.46,5.46,0,0,1-1.06-.09.5.5,0,0,1-.4-.55l.46-3.47a.45.45,0,0,1,.21-.35.47.47,0,0,1,.4-.07c2.82.71,6.07-.85,6.11-.86a.5.5,0,0,1,.46,0,.51.51,0,0,1,.25.38c0,.15.08,1.48-2.2,3.47A6.36,6.36,0,0,1,184.91,96.84Zm-.4-1a5.51,5.51,0,0,0,4-1.27,7,7,0,0,0,1.57-1.81,11,11,0,0,1-5.23.64Z" fill="#231f20"></path><path d="M186.82,81.69s-2.75,3.45-2.22,4.13,2.19.4,2.19.4" fill="#fff"></path><path d="M186,86.78a2.28,2.28,0,0,1-1.82-.66c-.51-.65.24-2.25,2.23-4.74a.5.5,0,1,1,.78.63C186,83.52,185,85.2,185,85.59a2.83,2.83,0,0,0,1.67.14.5.5,0,1,1,.17,1A5.45,5.45,0,0,1,186,86.78Z" fill="#231f20"></path><path d="M186.05,88.8s2.64,1.11,3.6-1.47" fill="#fff"></path><path d="M187.32,89.53a4.46,4.46,0,0,1-1.47-.27.5.5,0,0,1,.39-.93,2.76,2.76,0,0,0,1.9,0,2.05,2.05,0,0,0,1.05-1.22.5.5,0,1,1,.93.35,3,3,0,0,1-1.59,1.79A3.12,3.12,0,0,1,187.32,89.53Z" fill="#231f20"></path><ellipse cx="190.97" cy="81.94" rx="0.85" ry="0.61" transform="translate(56.61 240.47) rotate(-72.94)" fill="#231f20"></ellipse><ellipse cx="184.61" cy="81.45" rx="0.85" ry="0.61" transform="translate(52.58 234.04) rotate(-72.94)" fill="#231f20"></ellipse><path d="M194.71,79.76l9.44,2s5-12.37-4.72-17.92c-11-6.27-16.69,2.63-16.69,2.63Z" fill="#fff"></path><path d="M204.15,82.28H204l-9.43-2a.5.5,0,0,1-.28-.16l-12-13.27a.51.51,0,0,1-.05-.63c.06-.09,6.09-9.24,17.38-2.79,4.13,2.36,6.3,6.33,6.25,11.48A21.37,21.37,0,0,1,204.63,82,.51.51,0,0,1,204.15,82.28Zm-9.17-3,8.84,1.88a21.08,21.08,0,0,0,1.09-6.32c0-4.8-1.9-8.35-5.74-10.55-9.37-5.35-14.64.63-15.77,2.14Z" fill="#231f20"></path><path d="M194.71,79.76s-1.87-10-12-13.28L177,65.75a32.19,32.19,0,0,1,8.27,9.83C188.85,81.9,194.71,79.76,194.71,79.76Z" fill="#fff"></path><path d="M192.39,80.61c-2.18,0-5.33-.8-7.6-4.77a32,32,0,0,0-8.12-9.67.52.52,0,0,1-.18-.61.51.51,0,0,1,.54-.32l5.78.73c10.36,3.4,12.39,13.59,12.41,13.69a.51.51,0,0,1-.33.58A8,8,0,0,1,192.39,80.61ZM178.68,66.48a35.92,35.92,0,0,1,7,8.85c2.83,5,7,4.4,8.41,4.07-.52-2-3.06-9.64-11.52-12.43Z" fill="#231f20"></path><path d="M163.93,193.66l-.15,0a.5.5,0,0,1-.32-.63l8.67-28.13a.5.5,0,0,1,.62-.33.51.51,0,0,1,.33.63l-8.67,28.13A.51.51,0,0,1,163.93,193.66Z" fill="#fff"></path><path d="M181.09,210.39a.48.48,0,0,1-.2,0,.49.49,0,0,1-.26-.65l7-16.74a.5.5,0,0,1,.65-.27.51.51,0,0,1,.27.65l-7,16.75A.5.5,0,0,1,181.09,210.39Z" fill="#fff"></path><path d="M207.56,117.19s14.44,29,21.13,40.9c0,0,1.42,10.41,7.91,9.84,9.23-.82,7.6-6.69,7.6-6.69L239,156.19,219.57,114" fill="#fff"></path><path d="M236.08,168.45c-6.15,0-7.7-9.08-7.87-10.2-6.64-11.79-21-40.55-21.1-40.84A.5.5,0,0,1,208,117c.15.29,14.52,29.17,21.13,40.88a.64.64,0,0,1,.06.18c0,.1,1.44,9.93,7.37,9.41,3.24-.29,5.43-1.23,6.52-2.79a4.25,4.25,0,0,0,.67-3.14l-5.08-5a.49.49,0,0,1-.11-.14l-19.45-42.21a.5.5,0,0,1,.25-.66.49.49,0,0,1,.66.24l19.41,42.12,5.12,5a.55.55,0,0,1,.14.23,5.23,5.23,0,0,1-.79,4.1c-1.26,1.82-3.7,2.9-7.25,3.21Z" fill="#231f20"></path><path d="M207.56,136.28s-8.29-9.38-7.47-21.75,5-19.09,5-19.09l4.26,1.07s-4.63,6.87-5.09,18.32c-.37,9.07,4.73,17,4.73,17Z" fill="#231f20"></path><path d="M207.56,136.78a.5.5,0,0,1-.38-.17c-.08-.1-8.41-9.68-7.59-22.12s4.9-19,5.07-19.31a.49.49,0,0,1,.54-.23L209.46,96a.52.52,0,0,1,.35.31.51.51,0,0,1-.06.45c0,.07-4.56,6.91-5,18.07-.36,8.8,4.6,16.67,4.65,16.75a.48.48,0,0,1,0,.42L208,136.43a.53.53,0,0,1-.37.34ZM205.33,96c-.8,1.46-4,7.93-4.74,18.55-.68,10.12,4.94,18.31,6.77,20.69l1.08-3.32c-.81-1.33-5-8.69-4.69-17.12a39.39,39.39,0,0,1,4.81-18Z" fill="#231f20"></path><path d="M165.94,129.21s1.43-17,11.37-32.26l-4.19.57s-5.72,3.08-8.28,15.91C162.45,125.42,165.94,129.21,165.94,129.21Z" fill="#231f20"></path><path d="M165.94,129.71a.49.49,0,0,1-.37-.16c-.15-.16-3.63-4.11-1.22-16.22,2.58-12.91,8.29-16.12,8.54-16.25l.16,0,4.19-.57a.51.51,0,0,1,.49.23.49.49,0,0,1,0,.53c-9.75,15-11.27,31.87-11.29,32a.47.47,0,0,1-.33.42A.45.45,0,0,1,165.94,129.71ZM173.29,98c-.65.41-5.64,3.89-8,15.53-1.6,8-.53,12.25.29,14.14.6-4.42,3-17.77,10.69-30.08Z" fill="#231f20"></path><path d="M208.91,148.7a.5.5,0,0,1-.5-.46,29,29,0,0,1,4-17,.5.5,0,1,1,.85.52,28.06,28.06,0,0,0-3.88,16.4.49.49,0,0,1-.46.53Z" fill="#fff"></path><path d="M172.6,161.18a.48.48,0,0,1-.49-.48c0-.26-.18-6.26,0-9.09a.49.49,0,0,1,.53-.47.5.5,0,0,1,.46.53c-.18,2.78,0,8.94,0,9a.5.5,0,0,1-.48.51Z" fill="#fff"></path><path d="M196.25,158.6a.51.51,0,0,1-.36-.15c-4.25-4.41-3.55-8.93-3.52-9.12a.51.51,0,0,1,.57-.41.49.49,0,0,1,.41.57,10.5,10.5,0,0,0,3.26,8.27.5.5,0,0,1,0,.71A.48.48,0,0,1,196.25,158.6Z" fill="#fff"></path><path d="M125.53,91.5a.5.5,0,0,1-.49-.4c-.46-2.3,2.44-4.6,2.56-4.7a.5.5,0,0,1,.7.08.52.52,0,0,1-.08.71c-.71.55-2.48,2.3-2.2,3.71a.49.49,0,0,1-.39.59Z" fill="#231f20"></path><rect x="170.97" y="123.54" width="23.05" height="12.2" rx="1.5" transform="translate(24.95 -29.39) rotate(9.88)" fill="#fff"></rect><path d="M191.58,137.89a2,2,0,0,1-.34,0h0l-19.76-3.44a2.06,2.06,0,0,1-1.29-.82,2,2,0,0,1-.34-1.5l1.58-9.06a2,2,0,0,1,.82-1.29,2,2,0,0,1,1.5-.34l19.75,3.44a2.06,2.06,0,0,1,1.3.82,2,2,0,0,1,.33,1.5l-1.58,9.06A2,2,0,0,1,191.58,137.89Zm-.17-1a1,1,0,0,0,1.16-.81l1.58-9.06a1,1,0,0,0-.82-1.16l-19.75-3.44a1,1,0,0,0-1.16.81l-1.58,9.06a1,1,0,0,0,.17.75,1,1,0,0,0,.64.41l19.76,3.44Z" fill="#231f20"></path><path d="M180.06,120.74h7.47a1.73,1.73,0,0,1,1.73,1.73v1.18a0,0,0,0,1,0,0H178.32a0,0,0,0,1,0,0v-1.18a1.73,1.73,0,0,1,1.73-1.73Z" transform="translate(23.69 -29.72) rotate(9.88)" fill="#fff"></path><path d="M188.92,125.06h-.08l-10.77-1.88a.49.49,0,0,1-.32-.2.52.52,0,0,1-.09-.38l.2-1.16a2.25,2.25,0,0,1,2.59-1.82l7.35,1.28a2.27,2.27,0,0,1,1.45.92,2.25,2.25,0,0,1,.37,1.67l-.2,1.16a.51.51,0,0,1-.21.32A.48.48,0,0,1,188.92,125.06Zm-10.19-2.78,9.79,1.71.11-.67a1.19,1.19,0,0,0-.2-.92,1.24,1.24,0,0,0-.8-.51l-7.36-1.28a1.23,1.23,0,0,0-1.42,1Z" fill="#231f20"></path><circle cx="182.49" cy="129.64" r="5.14" fill="#fff"></circle><path d="M182.5,135.28a6.48,6.48,0,0,1-1-.08,5.67,5.67,0,0,1-4.59-6.53,5.64,5.64,0,1,1,11.12,1.93h0A5.64,5.64,0,0,1,182.5,135.28Zm0-10.29a4.64,4.64,0,0,0-.78,9.22,4.64,4.64,0,1,0,1.59-9.15A4.43,4.43,0,0,0,182.48,125Zm5.08,5.53h0Z" fill="#231f20"></path><circle cx="182.49" cy="129.64" r="3.09" fill="#fff"></circle><path d="M182.49,133.23a4.18,4.18,0,0,1-.61,0A3.61,3.61,0,0,1,179,129a3.56,3.56,0,0,1,1.48-2.32,3.49,3.49,0,0,1,2.68-.6,3.59,3.59,0,0,1,2.92,4.15h0A3.59,3.59,0,0,1,182.49,133.23Zm0-6.19a2.6,2.6,0,1,0,.45,0A2.28,2.28,0,0,0,182.49,127Zm3,3.13h0Z" fill="#231f20"></path><path d="M246,247.46a.51.51,0,0,1-.49-.4l-9.25-45.44a.51.51,0,0,1,.39-.59.5.5,0,0,1,.59.39l9.25,45.44a.51.51,0,0,1-.39.59Z" fill="#d1d3d4"></path><path d="M265.06,247.46a.5.5,0,0,1-.49-.4l-9.82-45.43a.5.5,0,0,1,.38-.6.52.52,0,0,1,.6.39l9.82,45.43a.5.5,0,0,1-.38.6Z" fill="#d1d3d4"></path><path d="M275.81,229a.5.5,0,0,1-.39-.18.52.52,0,0,1,.07-.71l8.22-6.69a.5.5,0,0,1,.63.78l-8.21,6.69A.56.56,0,0,1,275.81,229Z" fill="#d1d3d4"></path></g></svg>