<svg id="visual" viewBox="0 0 675 900" width="675" height="900" xmlns="http://www.w3.org/2000/svg" xmlns:xlink="http://www.w3.org/1999/xlink" version="1.1"><path d="M0 686L28.2 705.3C56.3 724.7 112.7 763.3 169 757.8C225.3 752.3 281.7 702.7 337.8 703.7C394 704.7 450 756.3 506.2 774.2C562.3 792 618.7 776 646.8 768L675 760L675 901L646.8 901C618.7 901 562.3 901 506.2 901C450 901 394 901 337.8 901C281.7 901 225.3 901 169 901C112.7 901 56.3 901 28.2 901L0 901Z" fill="#FFD56D" stroke-linecap="round" stroke-linejoin="miter"></path></svg>